<svg xmlns="http://www.w3.org/2000/svg" xmlns:xlink="http://www.w3.org/1999/xlink" width="500" zoomAndPan="magnify" viewBox="0 0 375 374.999991" height="500" preserveAspectRatio="xMidYMid meet" version="1.0"><defs><g/><clipPath id="73e8d52510"><path d="M 7.839844 0 L 181 0 L 181 374.964844 L 7.839844 374.964844 Z M 7.839844 0 " clip-rule="nonzero"/></clipPath><clipPath id="abbd665639"><path d="M 194 0 L 367 0 L 367 374.964844 L 194 374.964844 Z M 194 0 " clip-rule="nonzero"/></clipPath></defs><g clip-path="url(#73e8d52510)"><path fill="#0097b2" d="M 91.148438 53.289062 C 94.347656 35.246094 103.460938 20.847656 119.679688 11.511719 C 135.261719 2.582031 154.496094 0.125 172.207031 0.125 L 180.539062 0.125 L 180.539062 145.394531 C 180.539062 149.964844 176.785156 153.726562 172.207031 153.726562 C 167.632812 153.726562 163.871094 149.972656 163.871094 145.394531 L 163.871094 17.011719 C 151.632812 17.640625 138.5 19.914062 127.96875 25.976562 C 117.402344 32 111.339844 40.929688 108.476562 51.796875 C 106.390625 65.414062 104.308594 80.554688 107.058594 91.527344 C 109.03125 99.410156 114.089844 105.363281 124.988281 106.929688 C 127.699219 102.09375 132.910156 98.78125 138.898438 98.78125 C 147.75 98.78125 154.890625 105.960938 154.890625 114.8125 C 154.890625 123.628906 147.75 130.769531 138.898438 130.769531 C 133.351562 130.769531 128.441406 127.945312 125.578125 123.664062 C 104.5625 122.03125 94.886719 110.796875 91.058594 95.542969 C 89.125 87.808594 88.9375 79.25 89.535156 70.585938 C 85.445312 71.816406 81.5 73.9375 78.488281 76.386719 C 61.488281 90.003906 59.40625 118.386719 60.148438 138.289062 L 60.449219 146.472656 L 52.261719 146.921875 C 40.097656 147.550781 32.289062 155.921875 28.160156 166.785156 C 25.851562 172.960938 24.734375 179.726562 24.621094 186.316406 C 24.472656 192.894531 25.363281 199.707031 27.371094 205.996094 C 29.570312 212.800781 33.546875 220.019531 39.800781 223.59375 C 40.617188 216.527344 41.957031 209.757812 44.304688 203.621094 C 48.695312 192.050781 56.132812 183.011719 69.1875 178.738281 C 70.933594 171.78125 77.222656 166.648438 84.703125 166.648438 C 93.554688 166.648438 100.695312 173.828125 100.695312 182.644531 C 100.695312 191.496094 93.554688 198.636719 84.703125 198.636719 C 80.609375 198.636719 76.855469 197.117188 74.027344 194.542969 C 66.625 197.257812 62.277344 202.617188 59.707031 209.421875 C 55.023438 221.773438 54.570312 239.589844 55.132812 253.433594 C 56.214844 280.144531 63.355469 290.039062 87.609375 289.035156 L 93.15625 288.808594 C 102.195312 287.691406 113.578125 283.898438 118 272.253906 C 114.988281 269.316406 113.09375 265.222656 113.09375 260.679688 C 113.09375 251.867188 120.234375 244.6875 129.085938 244.6875 C 137.902344 244.6875 145.082031 251.867188 145.082031 260.679688 C 145.082031 267.710938 140.539062 273.660156 134.257812 275.820312 C 127.820312 297.136719 109.039062 303.460938 95.128906 305.132812 C 94.199219 313.019531 94.535156 321.277344 97.210938 328.570312 C 98.730469 332.738281 101.039062 336.605469 104.355469 339.617188 C 107.515625 342.519531 111.308594 344.339844 115.511719 345.195312 C 123.324219 346.753906 131.882812 344.96875 139.25 342.292969 L 150.449219 338.199219 L 150.449219 351.519531 C 150.449219 353.304688 151.152344 354.980469 152.417969 356.242188 C 153.683594 357.507812 155.355469 358.210938 157.140625 358.210938 L 163.871094 358.210938 L 163.871094 226.074219 C 163.871094 201.082031 153.601562 184.1875 131.359375 174.996094 C 128.71875 176.855469 125.519531 177.9375 122.09375 177.9375 C 113.242188 177.9375 106.101562 170.753906 106.101562 161.941406 C 106.101562 153.128906 113.242188 145.949219 122.09375 145.949219 C 130.203125 145.949219 136.898438 152.011719 137.9375 159.859375 C 173.464844 174.03125 180.53125 197.984375 180.53125 235.371094 L 180.53125 374.875 L 157.140625 374.875 C 150.925781 374.875 145.015625 372.414062 140.621094 368.03125 C 138.539062 365.910156 136.828125 363.421875 135.675781 360.699219 C 128.015625 362.484375 119.972656 363.046875 112.238281 361.480469 C 105.058594 360.027344 98.550781 356.832031 93.117188 351.878906 C 87.835938 347.082031 84.042969 340.980469 81.582031 334.242188 C 78.269531 325.167969 77.492188 315.199219 78.347656 305.523438 C 66.59375 304.742188 55.097656 301.242188 47.730469 291.238281 C 38.652344 278.9375 38.621094 259.820312 38.246094 245.082031 C 38.210938 243.703125 38.171875 242.371094 38.136719 240.992188 C 24.480469 236.710938 15.851562 224.441406 11.535156 211.046875 C 8.972656 203.050781 7.855469 194.417969 8 186.015625 C 8.148438 177.53125 9.59375 168.867188 12.609375 160.90625 C 18.078125 146.472656 28.339844 135.085938 43.375 131.445312 C 43.410156 109.425781 47.390625 84.242188 63.09375 67.910156 C 70.609375 60.09375 80.46875 54.882812 91.148438 53.289062 Z M 138.914062 108.335938 C 142.480469 108.335938 145.386719 111.199219 145.386719 114.8125 C 145.386719 118.382812 142.488281 121.25 138.914062 121.25 C 135.335938 121.25 132.4375 118.386719 132.4375 114.8125 C 132.4375 111.199219 135.335938 108.335938 138.914062 108.335938 Z M 122.09375 155.472656 C 125.660156 155.472656 128.53125 158.375 128.53125 161.949219 C 128.53125 165.523438 125.667969 168.425781 122.09375 168.425781 C 118.488281 168.425781 115.617188 165.523438 115.617188 161.949219 C 115.617188 158.375 118.488281 155.472656 122.09375 155.472656 Z M 129.085938 254.195312 C 132.65625 254.195312 135.5625 257.097656 135.5625 260.671875 C 135.5625 264.246094 132.660156 267.148438 129.085938 267.148438 C 125.511719 267.148438 122.609375 264.246094 122.609375 260.671875 C 122.609375 257.097656 125.519531 254.195312 129.085938 254.195312 Z M 84.710938 176.152344 C 88.277344 176.152344 91.183594 179.054688 91.183594 182.628906 C 91.183594 186.203125 88.285156 189.101562 84.710938 189.101562 C 81.132812 189.101562 78.234375 186.203125 78.234375 182.628906 C 78.234375 179.054688 81.140625 176.152344 84.710938 176.152344 Z M 84.710938 176.152344 " fill-opacity="1" fill-rule="evenodd"/></g><g clip-path="url(#abbd665639)"><path fill="#004aad" d="M 283.796875 53.289062 C 280.597656 35.246094 271.484375 20.847656 255.265625 11.511719 C 239.71875 2.582031 220.449219 0.125 202.738281 0.125 L 194.441406 0.125 L 194.441406 145.394531 C 194.441406 149.964844 198.160156 153.726562 202.738281 153.726562 L 202.777344 153.726562 C 207.347656 153.726562 211.074219 149.972656 211.074219 145.394531 L 211.074219 17.011719 C 223.3125 17.640625 236.445312 19.914062 247.011719 25.976562 C 257.542969 32 263.605469 40.929688 266.46875 51.796875 C 268.554688 65.414062 270.636719 80.554688 267.886719 91.527344 C 265.914062 99.410156 260.855469 105.363281 249.996094 106.929688 C 247.246094 102.09375 242.035156 98.78125 236.046875 98.78125 C 227.234375 98.78125 220.054688 105.960938 220.054688 114.8125 C 220.054688 123.628906 227.234375 130.769531 236.046875 130.769531 C 241.59375 130.769531 246.503906 127.945312 249.367188 123.664062 C 270.382812 122.03125 280.09375 110.796875 283.886719 95.542969 C 285.820312 87.808594 286.007812 79.25 285.410156 70.585938 C 289.5 71.816406 293.445312 73.9375 296.457031 76.386719 C 313.457031 90.003906 315.578125 118.386719 314.835938 138.289062 L 314.496094 146.472656 L 322.683594 146.921875 C 334.882812 147.550781 342.65625 155.921875 346.785156 166.785156 C 349.132812 172.960938 350.25 179.726562 350.351562 186.316406 C 350.464844 192.894531 349.609375 199.707031 347.566406 205.996094 C 345.367188 212.800781 341.390625 220.019531 335.175781 223.59375 C 334.320312 216.527344 332.980469 209.757812 330.632812 203.621094 C 326.28125 192.050781 318.808594 183.011719 305.75 178.738281 C 304.003906 171.78125 297.714844 166.648438 290.234375 166.648438 C 281.421875 166.648438 274.242188 173.828125 274.242188 182.644531 C 274.242188 191.496094 281.421875 198.636719 290.234375 198.636719 C 294.367188 198.636719 298.082031 197.117188 300.945312 194.542969 C 308.351562 197.257812 312.660156 202.617188 315.230469 209.421875 C 319.917969 221.773438 320.402344 239.589844 319.839844 253.433594 C 318.722656 280.144531 311.582031 290.039062 287.328125 289.035156 L 281.78125 288.808594 C 272.78125 287.691406 261.394531 283.898438 256.9375 272.253906 C 259.988281 269.316406 261.882812 265.222656 261.882812 260.679688 C 261.882812 251.867188 254.703125 244.6875 245.886719 244.6875 C 237.035156 244.6875 229.894531 251.867188 229.894531 260.679688 C 229.894531 267.710938 234.398438 273.660156 240.71875 275.820312 C 247.15625 297.136719 265.898438 303.460938 279.847656 305.132812 C 280.777344 313.019531 280.402344 321.277344 277.726562 328.570312 C 276.207031 332.738281 273.898438 336.605469 270.621094 339.617188 C 267.421875 342.519531 263.628906 344.339844 259.425781 345.195312 C 251.613281 346.753906 243.054688 344.96875 235.6875 342.292969 L 224.527344 338.199219 L 224.527344 351.519531 C 224.527344 353.304688 223.785156 354.980469 222.519531 356.242188 C 221.253906 357.507812 219.582031 358.210938 217.796875 358.210938 L 211.066406 358.210938 L 211.066406 226.074219 C 211.066406 201.082031 221.335938 184.1875 243.617188 174.996094 C 246.21875 176.855469 249.417969 177.9375 252.882812 177.9375 C 261.695312 177.9375 268.875 170.753906 268.875 161.941406 C 268.875 153.128906 261.695312 145.949219 252.882812 145.949219 C 244.734375 145.949219 238.042969 152.011719 237 159.859375 C 201.472656 174.03125 194.441406 197.984375 194.441406 235.371094 L 194.441406 374.875 L 217.804688 374.875 C 224.019531 374.875 229.933594 372.414062 234.324219 368.03125 C 236.445312 365.910156 238.117188 363.421875 239.269531 360.699219 C 246.96875 362.484375 254.972656 363.046875 262.707031 361.480469 C 269.886719 360.027344 276.394531 356.832031 281.828125 351.878906 C 287.109375 347.082031 290.902344 340.980469 293.363281 334.242188 C 296.710938 325.167969 297.453125 315.199219 296.597656 305.523438 C 308.351562 304.742188 319.847656 301.242188 327.214844 291.238281 C 336.332031 278.921875 336.332031 259.804688 336.703125 245.074219 C 336.742188 243.695312 336.78125 242.363281 336.816406 240.984375 C 350.472656 236.703125 359.101562 224.425781 363.417969 211.042969 C 365.980469 203.042969 367.132812 194.410156 366.984375 186.007812 C 366.835938 177.523438 365.351562 168.859375 362.335938 160.898438 C 356.867188 146.464844 346.605469 135.078125 331.570312 131.4375 C 331.535156 109.417969 327.554688 84.234375 311.851562 67.902344 C 304.335938 60.09375 294.476562 54.882812 283.796875 53.289062 Z M 236.039062 108.335938 C 232.472656 108.335938 229.5625 111.199219 229.5625 114.8125 C 229.5625 118.382812 232.464844 121.25 236.039062 121.25 C 239.613281 121.25 242.515625 118.386719 242.515625 114.8125 C 242.507812 111.199219 239.609375 108.335938 236.039062 108.335938 Z M 252.890625 155.472656 C 249.320312 155.472656 246.414062 158.375 246.414062 161.949219 C 246.414062 165.523438 249.3125 168.425781 252.890625 168.425781 C 256.457031 168.425781 259.363281 165.523438 259.363281 161.949219 C 259.363281 158.375 256.457031 155.472656 252.890625 155.472656 Z M 245.894531 254.195312 C 242.328125 254.195312 239.421875 257.097656 239.421875 260.671875 C 239.421875 264.246094 242.320312 267.148438 245.894531 267.148438 C 249.472656 267.148438 252.371094 264.246094 252.371094 260.671875 C 252.371094 257.097656 249.464844 254.195312 245.894531 254.195312 Z M 290.234375 176.152344 C 286.667969 176.152344 283.761719 179.054688 283.761719 182.628906 C 283.761719 186.203125 286.660156 189.101562 290.234375 189.101562 C 293.8125 189.101562 296.710938 186.203125 296.710938 182.628906 C 296.710938 179.054688 293.8125 176.152344 290.234375 176.152344 Z M 290.234375 176.152344 " fill-opacity="1" fill-rule="evenodd"/></g><g fill="#0097b2" fill-opacity="1"><g transform="translate(131.649356, 354.954997)"><g><path d="M 1.53125 0.09375 C 1.34375 0.09375 1.171875 0.0234375 1.015625 -0.109375 C 0.867188 -0.253906 0.796875 -0.4375 0.796875 -0.65625 C 0.796875 -0.863281 0.867188 -1.035156 1.015625 -1.171875 C 1.171875 -1.316406 1.34375 -1.390625 1.53125 -1.390625 C 1.726562 -1.390625 1.898438 -1.316406 2.046875 -1.171875 C 2.203125 -1.035156 2.28125 -0.863281 2.28125 -0.65625 C 2.28125 -0.4375 2.203125 -0.253906 2.046875 -0.109375 C 1.898438 0.0234375 1.726562 0.09375 1.53125 0.09375 Z M 1.53125 0.09375 "/></g></g></g></svg>