<svg xmlns="http://www.w3.org/2000/svg" xmlns:xlink="http://www.w3.org/1999/xlink" width="500" zoomAndPan="magnify" viewBox="0 0 375 374.999991" height="500" preserveAspectRatio="xMidYMid meet" version="1.0"><defs><clipPath id="413d662f68"><path d="M 0.683594 77 L 374.183594 77 L 374.183594 375 L 0.683594 375 Z M 0.683594 77 " clip-rule="nonzero"/></clipPath></defs><path fill="#b17d57" d="M 306.027344 131.355469 C 305.3125 128.578125 304.441406 125.835938 303.457031 123.132812 L 303.472656 123.140625 C 300.582031 113.558594 292.609375 101.507812 289.210938 96.625 C 288.726562 95.863281 288.21875 95.113281 287.640625 94.414062 C 267.050781 65.558594 228.507812 53.023438 228.507812 53.023438 C 210.890625 47.113281 194.582031 45.488281 180.945312 45.816406 C 180.648438 45.792969 180.355469 45.765625 180.058594 45.75 C 179.03125 45.683594 178.015625 45.683594 177.003906 45.742188 C 176.929688 45.71875 176.890625 45.703125 176.890625 45.703125 L 176.914062 45.75 C 175.296875 45.839844 173.695312 46.054688 172.101562 46.324219 C 153.160156 48.003906 141.230469 53.03125 141.230469 53.03125 C 136.707031 54.410156 132.445312 56.039062 128.429688 57.851562 C 128.191406 57.902344 127.945312 57.960938 127.722656 58.066406 C 125.640625 59.09375 123.59375 60.21875 121.5 61.238281 C 119.539062 62.199219 117.675781 63.308594 115.894531 64.53125 C 95.011719 77.488281 82.992188 94.539062 78.804688 101.234375 C 78.804688 101.234375 71.597656 110.257812 64.914062 127.101562 C 64.3125 128.53125 63.730469 129.96875 63.164062 131.414062 C 62.878906 132.136719 62.679688 132.902344 62.492188 133.65625 C 61.917969 135.332031 61.351562 137.074219 60.808594 138.875 C 60.480469 139.933594 60.152344 140.992188 59.832031 142.0625 C 58.96875 144.960938 58.007812 147.847656 57.308594 150.796875 C 56.578125 153.867188 55.988281 156.980469 55.554688 160.113281 C 51.257812 194.941406 61.726562 223.023438 64.3125 229.292969 C 64.503906 229.730469 64.683594 230.171875 64.878906 230.609375 C 65.167969 231.28125 65.472656 231.949219 65.800781 232.605469 C 66.933594 234.855469 68.042969 237.132812 69.175781 239.382812 C 69.847656 240.96875 71.621094 244.8125 74.90625 249.890625 C 74.945312 249.964844 74.988281 250.03125 75.035156 250.105469 C 75.503906 250.859375 76.015625 251.59375 76.539062 252.316406 C 81.390625 259.324219 88.886719 268.117188 99.914062 276.527344 C 99.972656 276.585938 100.023438 276.644531 100.085938 276.691406 C 102.527344 278.5 104.882812 280.480469 107.5 281.992188 C 107.5 281.992188 123.300781 294.054688 147.460938 300.371094 C 150.140625 301.21875 152.921875 301.769531 155.722656 302.222656 C 158.464844 302.730469 161.289062 303.164062 164.195312 303.484375 C 170.8125 304.636719 199 308.738281 226.226562 300.386719 C 228.140625 299.839844 230.019531 299.171875 231.890625 298.457031 C 232.097656 298.382812 232.300781 298.300781 232.515625 298.21875 C 233.558594 297.816406 234.59375 297.40625 235.628906 296.996094 C 237.820312 296.125 240.003906 295.21875 242.15625 294.265625 L 242.148438 294.277344 C 242.148438 294.277344 242.253906 294.226562 242.449219 294.136719 C 244.058594 293.421875 245.660156 292.683594 247.238281 291.894531 C 248.675781 291.171875 250.03125 290.300781 251.367188 289.386719 C 255.71875 286.855469 261.1875 283.382812 266.851562 279.035156 C 268.027344 278.269531 269.101562 277.375 270.128906 276.4375 C 275.121094 272.347656 280.121094 267.597656 284.503906 262.25 C 284.605469 262.140625 284.703125 262.042969 284.792969 261.9375 C 304.285156 237.996094 308.613281 214.90625 309.539062 207.132812 C 309.976562 204.742188 310.285156 202.3125 310.566406 199.894531 C 310.574219 199.804688 310.582031 199.722656 310.589844 199.632812 C 316.246094 162.59375 306.027344 131.355469 306.027344 131.355469 Z M 181.101562 223.050781 C 179.351562 222.894531 177.644531 222.546875 175.976562 221.957031 C 166.863281 220.328125 160.929688 215.882812 157.042969 210.855469 C 145.917969 194.792969 151.691406 175.820312 152.242188 174.128906 C 153.019531 171.945312 153.84375 170.195312 154.464844 169.003906 C 154.628906 168.683594 154.804688 168.363281 154.992188 168.050781 C 155.304688 167.507812 155.492188 167.210938 155.492188 167.210938 C 163.367188 154.714844 176.773438 151.863281 185.929688 151.519531 C 185.996094 151.484375 186.0625 151.445312 186.125 151.410156 C 186.125 151.410156 186.144531 151.453125 186.160156 151.503906 C 191.765625 151.3125 195.722656 152.050781 195.722656 152.050781 C 215.035156 156.777344 221.003906 170.34375 222.851562 178.277344 C 222.851562 178.296875 226.34375 196.394531 216.628906 210.199219 C 207.335938 225.046875 189.78125 224.429688 181.101562 223.050781 Z M 181.101562 223.050781 " fill-opacity="1" fill-rule="nonzero"/><path fill="#fdae23" d="M 301.804688 149.546875 C 301.246094 147.453125 300.574219 145.382812 300.082031 143.269531 C 299.0625 138.929688 298.144531 134.570312 297.148438 130.222656 C 296.871094 128.980469 296.542969 127.75 296.214844 126.515625 C 296.105469 126.148438 296 125.761719 295.902344 125.339844 C 295.6875 124.527344 295.464844 123.722656 295.246094 122.910156 C 290.335938 106.402344 276.253906 96.042969 270.597656 92.519531 C 270.078125 92.214844 269.480469 92.03125 269.003906 91.6875 C 267.617188 90.695312 266.21875 89.683594 264.90625 88.589844 C 264.027344 87.859375 263.15625 87.113281 262.378906 86.28125 C 259.265625 83.324219 256.777344 79.929688 256.210938 76.355469 C 253.257812 67.492188 243.371094 71.238281 243.371094 71.238281 C 231.753906 72.929688 224.019531 63.210938 224.019531 63.210938 C 213.476562 52.683594 185.46875 50.433594 185.46875 50.433594 C 171.273438 47.277344 159.277344 59.257812 159.277344 59.257812 C 157.585938 60.53125 155.945312 61.886719 154.269531 63.175781 C 153.367188 63.875 152.503906 64.835938 151.46875 65.132812 C 146.757812 66.464844 141.902344 65.847656 137.101562 65.863281 C 133.867188 65.871094 130.632812 65.601562 127.46875 66.703125 C 125.878906 67.253906 124.382812 67.941406 123.003906 68.773438 C 123.003906 68.773438 122.988281 68.78125 122.953125 68.796875 C 122.929688 68.8125 122.90625 68.832031 122.878906 68.847656 C 122.691406 68.960938 122.304688 69.207031 121.738281 69.59375 C 121.640625 69.667969 121.535156 69.734375 121.433594 69.808594 C 117.789062 72.378906 108.667969 79.78125 103.496094 92.574219 C 103.496094 92.574219 89.785156 102.195312 86.515625 106.015625 C 85.285156 107.132812 84.234375 108.488281 83.246094 109.847656 C 80.695312 113.347656 77.789062 116.492188 76.375 120.878906 C 74.90625 125.449219 74.019531 130.082031 73.097656 134.734375 C 72.550781 137.535156 72.476562 140.425781 71.875 143.210938 C 71.375 145.527344 70.695312 147.886719 69.617188 149.980469 C 67.886719 153.34375 65.734375 156.480469 63.804688 159.742188 C 60.832031 164.769531 58.617188 170.046875 58.46875 176.011719 C 58.359375 180.457031 59.347656 184.5 62.351562 187.972656 C 63.320312 189.089844 64.074219 190.511719 64.527344 191.925781 C 65.003906 193.421875 65.09375 195.054688 65.199219 196.640625 C 65.539062 201.554688 65.636719 206.484375 66.167969 211.375 C 66.480469 214.207031 67.375 216.984375 68.140625 219.753906 C 69.59375 225.003906 71.457031 230.105469 74.421875 234.734375 C 74.421875 234.734375 88.667969 266.152344 110.300781 263.984375 C 110.300781 263.984375 116.574219 262.875 123.988281 276.398438 C 130.261719 284.167969 140.878906 298.226562 157.757812 297.882812 C 159.695312 297.972656 161.660156 297.703125 163.605469 297.519531 C 165.453125 297.347656 167.28125 297.085938 169.121094 296.863281 C 169.113281 296.796875 169.113281 296.742188 169.105469 296.675781 C 170.246094 296.558594 171.445312 296.4375 172.667969 296.304688 C 172.6875 296.304688 188.007812 292.738281 199.550781 294.210938 C 200.652344 294.503906 222.664062 300.207031 239.898438 287.144531 C 240.046875 287.0625 240.203125 286.980469 240.347656 286.898438 C 240.800781 286.644531 241.1875 286.230469 241.539062 285.835938 C 241.539062 285.835938 246.613281 282.667969 255.71875 266.160156 C 256.902344 264.417969 258.183594 262.71875 259.546875 261.097656 C 262.253906 258.066406 266.320312 254.460938 271.441406 252.652344 C 272.691406 252.308594 273.964844 252.003906 275.210938 251.699219 C 275.210938 251.699219 284.90625 253.597656 294.457031 234.722656 C 304.003906 215.851562 305.8125 195.367188 305.925781 188.851562 C 306.042969 182.335938 310.164062 168.117188 301.804688 149.546875 Z M 231.726562 190.324219 C 229.90625 198.53125 221.949219 218.785156 211.027344 223.433594 C 200.101562 228.085938 177.367188 232.734375 167.808594 228.90625 C 158.257812 225.078125 141.304688 209.082031 142.667969 196 C 144.039062 182.929688 143.136719 160.492188 155.46875 154.746094 C 155.46875 154.746094 157.929688 153.949219 167.800781 149.003906 C 177.667969 144.058594 191.339844 141.550781 198.449219 145.957031 C 205.5625 150.359375 221.21875 157.613281 222.960938 161.921875 C 224.707031 166.242188 233.542969 182.117188 231.726562 190.324219 Z M 231.726562 190.324219 " fill-opacity="1" fill-rule="nonzero"/><g clip-path="url(#413d662f68)"><path fill="#000000" d="M 68.902344 238.867188 C 69.035156 239.554688 69.222656 241.617188 68.253906 245.875 C 67.953125 247.773438 67.5 249.644531 66.664062 251.453125 C 65.316406 254.359375 63.507812 257 60.800781 258.558594 C 59.519531 259.300781 58.074219 259.792969 56.585938 260.171875 C 50.050781 262.027344 39.878906 257.820312 34.035156 254.9375 C 32.53125 254.140625 31.027344 253.308594 29.484375 252.511719 C 29.445312 254.207031 28.402344 255.242188 26.867188 256.054688 C 24.394531 257.359375 21.378906 256.972656 19.679688 254.722656 C 16.09375 249.972656 14.976562 244.722656 17.09375 239.046875 C 17.464844 238.070312 18.523438 237.355469 19.246094 236.492188 C 19.5 236.1875 19.6875 235.808594 19.902344 235.472656 L 19.886719 235.496094 C 20.183594 235.703125 20.476562 236.089844 20.78125 236.089844 C 25.246094 236.113281 27.136719 239.292969 27.957031 242.800781 C 28.835938 246.554688 31.25 248.511719 34.238281 250.128906 C 37.210938 251.742188 40.175781 253.480469 43.34375 254.589844 C 47.753906 256.136719 52.390625 256.816406 57.03125 255.460938 C 60.21875 254.527344 62.097656 252.117188 63.074219 249.09375 C 63.328125 248.3125 63.542969 247.523438 63.746094 246.726562 C 63.960938 245.765625 65.324219 239.351562 65.546875 232.0625 C 65.628906 232.242188 65.703125 232.425781 65.792969 232.597656 C 66.835938 234.683594 67.859375 236.777344 68.902344 238.867188 Z M 365.117188 185.722656 C 365.019531 184.324219 364.558594 182.035156 362.605469 181.007812 C 361.191406 180.546875 359.632812 180.191406 358.171875 180.308594 C 357.070312 180.398438 355.75 181.039062 355.019531 181.859375 C 352.710938 184.449219 351.183594 187.53125 350.140625 190.851562 C 350.027344 191.210938 349.855469 191.613281 349.574219 191.84375 C 349.574219 191.84375 347.054688 197.488281 335.789062 202.410156 C 335.117188 202.714844 334.433594 202.992188 333.746094 203.246094 C 333.636719 203.289062 333.53125 203.339844 333.417969 203.378906 C 321.140625 208.105469 311.386719 204.964844 309.957031 204.457031 C 309.828125 205.359375 309.6875 206.253906 309.523438 207.152344 C 309.433594 207.882812 309.316406 208.746094 309.160156 209.730469 C 309.53125 209.804688 309.925781 209.871094 310.328125 209.910156 C 310.328125 209.910156 328.472656 213.023438 339.386719 206.757812 C 339.386719 206.757812 345.222656 203.832031 349.214844 199.238281 C 349.535156 200.890625 350.601562 203.878906 354.238281 203.640625 C 359.230469 203.304688 362.6875 198.105469 363.367188 195.484375 C 363.367188 195.484375 364.171875 193.273438 364.691406 190.496094 C 364.699219 190.472656 364.707031 190.445312 364.707031 190.421875 C 364.730469 190.308594 364.738281 190.191406 364.765625 190.078125 C 364.78125 190.003906 364.789062 189.929688 364.804688 189.855469 C 364.847656 189.601562 364.886719 189.347656 364.921875 189.089844 C 365.078125 187.980469 365.160156 186.824219 365.117188 185.722656 Z M 172.085938 309.386719 C 170.722656 313.722656 169.246094 318.027344 167.734375 322.324219 C 167.257812 323.691406 166.4375 324.9375 165.9375 326.300781 C 164.632812 329.851562 162.167969 332.457031 159.136719 334.503906 C 154.308594 337.765625 149.292969 337.351562 144.1875 335.011719 C 140.53125 333.335938 137.445312 330.855469 134.292969 328.457031 C 132.683594 327.230469 131.222656 325.808594 129.695312 324.46875 C 128.464844 323.394531 127.25 322.300781 125.710938 320.9375 C 118.011719 327.066406 111.277344 334.074219 104.914062 341.714844 C 105.449219 342.128906 105.828125 342.414062 106.203125 342.695312 C 107.9375 343.949219 109.921875 343.902344 111.917969 343.859375 C 117.648438 343.753906 122.191406 341.355469 125.328125 336.574219 C 126.871094 334.214844 128.078125 331.636719 129.433594 329.160156 C 129.488281 329.171875 129.554688 329.152344 129.589844 329.179688 C 129.777344 329.335938 129.957031 329.5 130.128906 329.664062 C 135 334.320312 139.964844 338.875 146.347656 341.402344 C 149.574219 342.6875 152.9375 343.128906 156.429688 342.429688 C 159.328125 341.847656 161.550781 340.195312 163.761719 338.378906 C 167.0625 335.660156 169.679688 332.367188 171.550781 328.59375 C 174.605469 322.441406 176.398438 315.808594 178.023438 309.15625 C 178.382812 307.691406 178.671875 306.207031 179.023438 304.605469 C 176.972656 304.414062 175.171875 304.242188 173.128906 304.054688 C 172.757812 306.015625 172.59375 307.757812 172.085938 309.386719 Z M 90.71875 107.257812 C 92.484375 105.195312 94.199219 103.066406 95.660156 100.792969 C 96.722656 99.132812 97.386719 97.210938 97.171875 95.113281 C 97.03125 93.667969 96.375 92.773438 95.441406 92.589844 C 94.578125 92.425781 93.839844 93.191406 93.878906 94.070312 C 93.960938 96.15625 93.09375 98.046875 91.976562 99.722656 C 90.40625 102.089844 88.445312 104.210938 86.515625 106.3125 C 86.410156 106.429688 86.316406 106.542969 86.226562 106.65625 C 85.398438 107.773438 86.441406 109.371094 87.789062 109.03125 C 88.945312 108.746094 89.9375 108.167969 90.71875 107.257812 Z M 109.121094 99.199219 C 106.238281 103.273438 104.652344 107.609375 106.574219 112.507812 C 106.789062 113.050781 107.355469 113.386719 107.929688 113.265625 C 109.136719 113.007812 109.398438 112.367188 109.390625 110.9375 C 109.382812 109.460938 109.414062 107.882812 109.90625 106.519531 C 110.769531 104.144531 112.015625 101.925781 113.914062 100.132812 C 114.203125 99.863281 114.421875 99.535156 114.621094 99.171875 C 115.039062 98.433594 114.578125 97.503906 113.75 97.367188 C 112.035156 97.078125 110.160156 97.726562 109.121094 99.199219 Z M 98.847656 91.574219 C 100.0625 92.507812 101.449219 93.234375 102.78125 94.011719 C 105.957031 95.871094 109.347656 96.15625 112.855469 95.195312 C 114.488281 94.746094 115.292969 94.167969 115.5 93.066406 C 115.648438 92.289062 114.996094 91.597656 114.203125 91.605469 C 113.800781 91.613281 113.398438 91.636719 113.011719 91.738281 C 109.949219 92.535156 106.960938 92.617188 104.183594 90.90625 C 102.601562 89.9375 101.105469 88.828125 99.546875 87.726562 C 99.0625 87.382812 98.386719 87.523438 98.050781 88.007812 C 97.105469 89.378906 97.351562 90.421875 98.847656 91.574219 Z M 106.046875 115.605469 C 105.457031 113.9375 104.429688 112.679688 102.992188 111.710938 C 99.226562 109.171875 95.257812 108.515625 91.03125 110.453125 C 89.734375 111.046875 89.09375 111.6875 89.070312 112.605469 C 89.042969 113.394531 89.773438 114.003906 90.554688 113.90625 C 91.105469 113.832031 91.664062 113.742188 92.195312 113.550781 C 95.167969 112.484375 97.96875 112.632812 100.570312 114.480469 C 101.804688 115.351562 102.976562 116.320312 104.242188 117.3125 C 104.726562 117.699219 105.433594 117.78125 105.925781 117.40625 C 106.375 117.058594 106.367188 116.515625 106.046875 115.605469 Z M 133.234375 126.15625 C 133.4375 126.277344 133.644531 126.394531 133.867188 126.5 C 133.898438 126.515625 133.921875 126.53125 133.964844 126.550781 L 133.972656 126.542969 C 134.480469 126.761719 135.023438 126.933594 135.621094 127.007812 C 139.398438 127.496094 142.90625 126.902344 145.886719 124.125 C 148.59375 121.601562 149.621094 116.648438 147.78125 113.460938 C 145.738281 109.917969 142.800781 107.90625 138.710938 108.144531 C 137.898438 108.144531 137.207031 108.0625 136.542969 108.167969 C 135.886719 108.269531 135.230469 108.488281 134.613281 108.761719 C 130.941406 110.371094 128.234375 113.542969 128.234375 117.332031 L 128.21875 117.3125 C 128.21875 117.3125 127.886719 123.125 133.234375 126.15625 Z M 19.894531 235.472656 C 19.894531 235.464844 19.886719 235.464844 19.886719 235.457031 C 19.886719 235.472656 19.878906 235.488281 19.878906 235.496094 Z M 281.1875 340.277344 C 280.957031 338.601562 280.589844 336.984375 280.097656 335.390625 C 280.070312 335.308594 280.039062 335.226562 280.015625 335.136719 C 279.972656 335.011719 279.941406 334.886719 279.898438 334.773438 C 275.5625 321.265625 264.898438 316.03125 264.898438 316.03125 C 262.15625 319.210938 259.601562 322.0625 257.1875 325.027344 C 254.257812 328.628906 251.164062 332.070312 247.230469 334.566406 C 241.53125 338.183594 237.789062 337.773438 231.828125 333.976562 C 228.8125 332.0625 226.539062 329.210938 224.839844 326.054688 C 222.902344 322.457031 220.785156 318.882812 219.476562 315.046875 C 218.113281 311.019531 217.628906 306.699219 216.726562 302.359375 C 214.878906 302.722656 212.761719 303.132812 210.527344 303.566406 C 211.265625 306.707031 211.851562 309.640625 212.648438 312.507812 C 214.042969 317.511719 216.175781 322.210938 218.589844 326.804688 C 221.375 332.09375 225.109375 336.449219 230.554688 339.128906 C 234.632812 341.132812 238.804688 342.292969 243.4375 341.035156 C 246.859375 340.105469 250.0625 338.652344 252.574219 336.316406 C 255.433594 333.664062 257.738281 330.417969 260.234375 327.394531 C 261.039062 326.417969 261.695312 325.316406 262.550781 324.085938 C 262.550781 324.085938 263.386719 339.875 275.636719 343.5 L 275.636719 343.492188 C 277.3125 344.007812 279.09375 344.246094 280.917969 344.089844 C 281.015625 342.84375 281.359375 341.527344 281.1875 340.277344 Z M 373.066406 172.273438 C 372.410156 169.371094 371.660156 166.554688 369.527344 164.292969 C 367.605469 162.257812 364.828125 161.902344 363.515625 163.785156 C 361.539062 166.628906 360.324219 169.734375 359.9375 173.101562 C 361.234375 172.945312 362.5 172.9375 363.679688 173.472656 C 363.96875 172.496094 364.179688 171.492188 364.476562 170.539062 C 364.476562 170.539062 365.273438 167.039062 366.503906 167.261719 C 367.457031 167.433594 368.351562 168.558594 368.960938 173.523438 C 369.191406 174.976562 369.371094 176.429688 369.402344 177.882812 C 369.410156 178.164062 369.402344 178.441406 369.410156 178.722656 C 369.410156 178.78125 369.417969 178.835938 369.417969 178.894531 L 369.410156 178.878906 C 369.445312 182.238281 369.273438 185.609375 369 188.960938 C 368.925781 189.824219 368.828125 190.683594 368.722656 191.546875 L 368.722656 191.539062 C 368.722656 191.539062 365.9375 218.183594 350.878906 253.253906 C 350.878906 253.253906 334.925781 289.402344 321.640625 310.011719 C 321.058594 311.003906 320.433594 311.972656 319.761719 312.894531 C 319.574219 313.148438 319.390625 313.402344 319.203125 313.65625 C 318.464844 314.71875 317.734375 315.71875 317.027344 316.648438 C 317.019531 316.65625 317.019531 316.664062 317.011719 316.664062 C 316.996094 316.691406 314.484375 320.921875 309.1875 326.953125 C 308.75 327.484375 308.324219 328.035156 307.882812 328.5625 C 306.863281 329.769531 305.714844 330.863281 304.523438 331.921875 C 295.375 341.109375 280.984375 352.4375 260.523438 359.980469 C 252.789062 362.265625 245.429688 365.304688 237.605469 366.53125 C 230.859375 367.582031 224.109375 368.46875 217.628906 369.347656 C 201.414062 370.800781 184.796875 369.90625 170.984375 368.394531 C 145.605469 366.734375 120.925781 358.304688 120.925781 358.304688 C 84.242188 349.054688 59.9375 326.515625 59.9375 326.515625 C 26.535156 297.882812 11.125 264.367188 11.125 264.367188 L 11.132812 264.375 C 10.476562 263.167969 9.871094 261.96875 9.335938 260.761719 C 8.738281 259.28125 8.152344 257.804688 7.570312 256.316406 C 3.179688 243.53125 4.761719 232.375 4.941406 231.242188 C 5.222656 230.058594 5.566406 228.890625 5.984375 227.765625 C 6.683594 226.441406 7.601562 225.613281 8.5 225.09375 C 8.5 225.09375 12.777344 222.992188 16.757812 229.480469 C 17.242188 230.3125 17.71875 231.140625 18.203125 231.964844 C 18.359375 232.226562 18.5 232.496094 18.636719 232.769531 C 19.484375 232.433594 20.394531 232.21875 21.40625 232.1875 C 21.214844 231.265625 20.976562 230.378906 20.675781 229.523438 L 20.683594 229.523438 L 20.667969 229.507812 C 19.714844 226.886719 18.1875 224.578125 15.945312 222.597656 C 12.734375 219.761719 7.882812 219.925781 5.386719 221.941406 C 2.5625 224.214844 1.585938 227.527344 1.050781 230.902344 C 1.050781 230.902344 0.976562 231.386719 0.894531 232.269531 C 0.871094 232.523438 0.847656 232.769531 0.828125 233.023438 C 0.730469 234.378906 0.648438 236.335938 0.714844 238.742188 C 0.691406 240.648438 0.640625 242.585938 0.992188 244.4375 C 1.109375 245.050781 1.25 245.660156 1.378906 246.277344 C 1.972656 250.277344 3.023438 254.8125 4.820312 259.5625 C 4.835938 259.613281 4.851562 259.652344 4.871094 259.703125 C 4.953125 259.921875 5.042969 260.136719 5.125 260.359375 C 5.417969 261.113281 5.730469 261.871094 6.058594 262.609375 C 6.125 262.757812 6.183594 262.898438 6.25 263.046875 C 6.25 263.046875 19.515625 293.71875 41.046875 313.953125 C 41.242188 314.175781 63.976562 339.546875 91.046875 352.40625 C 92.328125 353.070312 93.652344 353.65625 94.988281 354.179688 C 94.996094 354.1875 95.011719 354.1875 95.023438 354.195312 C 95.972656 354.574219 96.941406 354.929688 97.902344 355.273438 L 97.894531 355.273438 C 97.894531 355.273438 126.65625 368.574219 161.085938 373.070312 L 161.085938 373.0625 C 164.5 373.644531 167.949219 374.03125 171.445312 374.195312 C 177.175781 374.457031 182.882812 375.082031 188.613281 375.378906 C 192.292969 375.574219 195.980469 375.519531 199.664062 375.492188 C 202.597656 375.476562 205.535156 375.453125 208.449219 375.230469 C 208.449219 375.230469 233.082031 375.015625 255.816406 367.015625 L 255.785156 367.03125 C 255.785156 367.03125 287.339844 357.03125 303.546875 339.71875 C 308.308594 335.59375 317.800781 325.71875 332.183594 303.460938 C 332.183594 303.460938 344.597656 279.445312 355.503906 253.957031 C 360.378906 242.972656 363.976562 232.457031 366.519531 223.847656 C 366.839844 223.050781 367.144531 222.242188 367.375 221.421875 C 368.6875 216.617188 369.921875 211.777344 370.953125 206.902344 C 371.210938 205.6875 371.429688 204.472656 371.636719 203.246094 C 371.6875 202.984375 371.710938 202.835938 371.710938 202.835938 L 371.695312 202.878906 C 372.097656 200.453125 372.425781 198.023438 372.753906 195.589844 C 373.238281 191.941406 373.6875 188.277344 373.910156 184.597656 C 374.140625 180.480469 373.992188 176.347656 373.066406 172.273438 Z M 235.628906 112.761719 C 235.464844 112.285156 235.199219 111.84375 234.890625 111.421875 C 233.847656 109.871094 232.589844 108.957031 232.589844 108.957031 L 232.589844 108.976562 C 231.324219 107.957031 229.898438 107.296875 228.328125 106.921875 L 228.34375 106.914062 C 224.988281 105.878906 222.089844 106.8125 220.0625 107.949219 C 218.925781 108.480469 217.917969 109.253906 217.128906 110.15625 C 217.089844 110.199219 217.0625 110.230469 217.0625 110.230469 L 217.082031 110.222656 C 216.621094 110.765625 216.226562 111.359375 215.957031 111.980469 C 214.601562 115.070312 214.722656 118.441406 216.832031 121.40625 C 219.304688 124.882812 222.753906 126.097656 226.898438 125.816406 C 227.910156 125.753906 228.871094 125.5625 229.757812 125.242188 L 229.757812 125.25 C 229.878906 125.203125 229.988281 125.152344 230.101562 125.101562 C 230.257812 125.039062 230.414062 124.980469 230.5625 124.90625 C 234.242188 123.179688 235.996094 120.050781 236.261719 116.097656 C 236.34375 114.839844 236.0625 113.730469 235.628906 112.761719 Z M 194.683594 130.3125 C 194.683594 130.3125 199.386719 125.570312 196.472656 123.195312 C 194.714844 123.015625 194.582031 123.296875 193.648438 124.617188 C 192.40625 126.375 191.152344 128.355469 189.402344 129.464844 C 185.632812 131.867188 181.488281 132.761719 177.21875 130.410156 C 175.929688 129.703125 174.640625 128.996094 173.335938 128.300781 C 173.324219 128.300781 172.136719 127.304688 171.058594 127.066406 C 171.019531 127.050781 170.984375 127.027344 170.945312 127.007812 C 170.921875 127.019531 170.902344 127.027344 170.878906 127.035156 C 170.417969 126.96875 170 127.066406 169.722656 127.46875 C 169.695312 127.476562 169.671875 127.484375 169.648438 127.496094 C 169.613281 127.578125 169.597656 127.675781 169.574219 127.765625 C 169.53125 127.863281 169.507812 127.980469 169.476562 128.09375 C 169.476562 128.101562 169.46875 128.109375 169.46875 128.117188 C 169.449219 128.183594 169.433594 128.234375 169.425781 128.300781 C 169.425781 128.300781 168.726562 129.992188 170.691406 131.585938 C 170.945312 131.824219 171.214844 132.046875 171.535156 132.1875 C 171.839844 132.324219 172.144531 132.472656 172.457031 132.613281 C 172.457031 132.613281 172.464844 132.613281 172.464844 132.621094 C 172.464844 132.621094 176.167969 135.160156 181.609375 135.5625 C 181.609375 135.5625 184.492188 136.023438 187.957031 134.90625 C 189.992188 134.273438 191.867188 133.171875 193.546875 131.527344 C 193.6875 131.390625 193.820312 131.242188 193.960938 131.09375 C 194.171875 130.871094 194.378906 130.648438 194.582031 130.402344 C 194.632812 130.371094 194.65625 130.335938 194.683594 130.3125 Z M 230.710938 79.15625 C 229.320312 78.296875 225.207031 80.875 225.109375 80.933594 C 224.304688 81.34375 223.5 81.753906 222.679688 82.132812 C 217.425781 84.523438 212.359375 87.257812 207.621094 90.570312 C 207.007812 91.007812 206.503906 91.628906 206.019531 92.222656 C 205.398438 92.984375 205.445312 93.9375 205.996094 94.613281 C 206.382812 95.082031 207.195312 95.34375 207.84375 95.410156 C 208.484375 95.476562 209.207031 95.285156 209.804688 95.007812 C 213.335938 93.347656 216.859375 91.671875 220.332031 89.898438 C 222.0625 89.007812 223.722656 87.941406 225.347656 86.855469 C 226.925781 85.8125 228.417969 84.648438 230.273438 83.300781 C 230.273438 83.300781 231.285156 82.585938 231.589844 81.128906 C 231.882812 79.667969 230.710938 79.15625 230.710938 79.15625 Z M 154.417969 93.480469 C 152.175781 91.21875 149.925781 88.976562 147.59375 86.808594 C 145.53125 84.894531 143.4375 83.003906 141.222656 81.269531 C 139.136719 79.644531 137.394531 77.351562 134.398438 77.277344 C 132.273438 78.515625 131.886719 79.855469 133.234375 81.433594 C 133.929688 82.238281 134.671875 83.027344 135.476562 83.71875 C 139.242188 86.957031 143.019531 90.183594 146.832031 93.363281 C 148.59375 94.84375 150.351562 96.371094 152.816406 97.019531 L 152.816406 97.027344 C 152.816406 97.027344 155.453125 98.277344 155.597656 95.460938 C 155.097656 94.597656 154.867188 93.929688 154.417969 93.480469 Z M 154.417969 93.480469 " fill-opacity="1" fill-rule="nonzero"/></g><path fill="#fe28c0" d="M 306.132812 70.753906 C 302.816406 74.613281 299.84375 78.066406 296.730469 81.695312 C 295.066406 80.234375 293.472656 78.835938 291.707031 77.285156 C 294.964844 73.390625 298.175781 69.570312 301.082031 66.09375 C 301.617188 59.5625 302.109375 53.457031 302.625 47.039062 C 305.121094 47.902344 306.675781 49.726562 308.339844 51.304688 C 308.039062 55.707031 307.734375 60.023438 307.421875 64.5 C 311.492188 64.269531 315.460938 64.039062 319.507812 63.808594 C 321.109375 65.988281 322.609375 68.015625 324.277344 70.277344 C 317.847656 70.441406 311.855469 70.605469 306.132812 70.753906 Z M 94.601562 214.167969 C 95.375 213.191406 95.226562 212.382812 94.191406 211.613281 C 93.140625 210.832031 92.179688 209.929688 91.164062 209.097656 C 89.242188 207.554688 87.296875 206.023438 85.25 204.40625 C 84.734375 205.144531 84.429688 205.574219 84.078125 206.074219 C 86 208.828125 93.230469 214.382812 94.601562 214.167969 Z M 100.160156 167.179688 C 99.90625 167.859375 99.59375 168.691406 99.257812 169.585938 C 102.8125 171.15625 106.246094 172.675781 109.734375 174.210938 C 110.03125 173.40625 110.308594 172.660156 110.671875 171.699219 C 107.171875 170.195312 103.742188 168.714844 100.160156 167.179688 Z M 250.515625 186.609375 C 249.710938 186.191406 248.945312 185.789062 248.109375 185.351562 C 246.316406 188.851562 244.542969 192.335938 242.6875 195.960938 C 243.386719 196.304688 243.929688 196.566406 244.625 196.90625 C 246.628906 193.40625 248.574219 190.011719 250.515625 186.609375 Z M 274.613281 235.800781 C 274.347656 232.300781 274.101562 229.023438 273.863281 225.734375 C 272.871094 225.898438 271.96875 226.046875 270.890625 226.21875 C 271.1875 229.472656 271.492188 232.761719 271.820312 236.285156 C 272.914062 236.097656 273.734375 235.949219 274.613281 235.800781 Z M 189.335938 280.308594 C 185.445312 280.308594 181.652344 280.308594 177.703125 280.308594 C 177.859375 281.195312 177.980469 281.894531 178.136719 282.773438 C 182.078125 282.773438 185.894531 282.773438 189.910156 282.773438 C 189.722656 281.917969 189.550781 281.1875 189.335938 280.308594 Z M 289.578125 202.589844 C 290.402344 202.679688 291.058594 202.753906 291.929688 202.84375 C 292.765625 199.691406 293.578125 196.660156 294.433594 193.445312 C 293.472656 193.28125 292.742188 193.148438 291.886719 193.003906 C 291.058594 196.257812 289.613281 199.238281 289.578125 202.589844 Z M 137.75 16.835938 C 137.742188 16.828125 137.734375 16.820312 137.726562 16.820312 C 137.726562 16.8125 137.75 16.835938 137.75 16.835938 Z M 356.398438 208.449219 C 356.867188 206.566406 357.195312 204.644531 357.679688 202.769531 C 358.441406 199.820312 359.296875 196.898438 360.117188 193.964844 C 361.125 190.324219 361.941406 186.617188 363.210938 183.070312 C 364.222656 180.242188 364.960938 177.441406 365.117188 174.449219 C 363.179688 172.601562 360.929688 172.929688 358.648438 173.285156 C 355.421875 184.851562 352.210938 196.355469 349.03125 207.734375 C 350.855469 210.25 353.226562 210 355.640625 210.066406 C 355.886719 209.558594 356.25 209.03125 356.398438 208.449219 Z M 26.09375 263.816406 C 27.972656 262.652344 29.738281 261.558594 31.621094 260.390625 C 30.339844 257.886719 29.023438 255.742188 28.136719 253.441406 C 26.964844 250.394531 26.019531 247.238281 25.183594 244.074219 C 24.597656 241.890625 24.359375 239.605469 23.992188 237.363281 C 23.722656 235.703125 23.472656 234.042969 23.210938 232.324219 C 20.742188 231.921875 18.792969 232.496094 17.070312 233.574219 C 18.464844 244.230469 20.164062 254.484375 26.09375 263.816406 Z M 39.929688 178.269531 C 28.292969 178.417969 16.882812 176.585938 5.296875 174.152344 C 5.296875 174.152344 5.050781 156.0625 15.140625 149.808594 C 15.199219 149.769531 15.265625 149.734375 15.328125 149.695312 C 15.566406 149.554688 15.804688 149.414062 16.050781 149.285156 C 16.222656 149.191406 16.40625 149.109375 16.578125 149.027344 C 16.675781 148.980469 16.765625 148.929688 16.863281 148.890625 L 16.855469 148.90625 C 18.820312 148.042969 20.960938 147.664062 23.164062 147.574219 C 28.144531 147.378906 32.359375 149.21875 36.078125 152.457031 C 37.25 153.472656 38.195312 154.601562 38.941406 155.824219 C 38.941406 155.824219 39.15625 156.136719 39.453125 156.777344 C 40.207031 158.273438 40.667969 159.90625 40.871094 161.648438 C 41.496094 165.28125 41.644531 170.726562 39.929688 178.269531 Z M 35.414062 166.375 C 34.839844 161.542969 33.703125 157.046875 28.226562 155.058594 C 27.769531 154.894531 27.324219 154.773438 26.875 154.671875 L 26.867188 154.664062 C 26.867188 154.664062 14.222656 151.140625 12.070312 169.167969 L 35.4375 171.492188 C 35.445312 169.617188 35.601562 167.976562 35.414062 166.375 Z M 46.90625 134.117188 C 46.421875 136.113281 45.773438 139.367188 41.941406 142.472656 C 38.457031 145.289062 33.828125 145.242188 32.0625 145.101562 C 32.0625 145.101562 32.0625 145.101562 32.054688 145.101562 C 31.601562 145.070312 31.324219 145.019531 31.324219 145.019531 L 31.347656 145.003906 C 29.132812 144.714844 27.144531 144.066406 25.027344 143.144531 C 20.074219 140.976562 17.472656 137.007812 15.886719 132.425781 C 14.433594 128.199219 14.238281 123.558594 17.367188 119.8125 C 19.222656 117.339844 21.914062 116.050781 24.253906 115.375 C 25.773438 114.847656 27.25 114.621094 28.695312 114.628906 C 28.933594 114.621094 29.074219 114.621094 29.074219 114.621094 L 29.066406 114.628906 C 29.722656 114.652344 30.371094 114.726562 31.019531 114.839844 L 31.011719 114.832031 C 31.011719 114.832031 31.035156 114.839844 31.070312 114.847656 C 32.464844 115.113281 33.828125 115.582031 35.175781 116.207031 C 38 117.394531 41.613281 119.484375 43.910156 122.917969 L 43.902344 122.917969 C 44.8125 124.101562 45.578125 125.40625 46.136719 126.871094 C 47.078125 129.328125 47.441406 131.75 46.90625 134.117188 Z M 40.808594 132.292969 C 40.972656 126.96875 36.199219 123.453125 36.199219 123.453125 L 36.199219 123.460938 C 34.417969 121.957031 32.21875 121.226562 29.8125 120.945312 C 28.515625 120.796875 27.046875 120.929688 25.847656 121.40625 C 22.761719 122.65625 21.199219 126.136719 21.226562 129.457031 C 21.257812 132.941406 24.089844 136.320312 27.414062 138.070312 L 27.40625 138.070312 C 27.40625 138.070312 28.886719 138.996094 31.011719 139.324219 L 31.011719 139.332031 C 31.035156 139.332031 31.070312 139.332031 31.09375 139.332031 C 32.277344 139.507812 33.65625 139.488281 35.101562 139.03125 C 41.109375 137.632812 40.808594 132.292969 40.808594 132.292969 Z M 40.863281 78.015625 C 39.527344 79.953125 38.351562 81.648438 36.949219 83.683594 L 55.914062 97.367188 L 28.164062 99.230469 C 26.914062 101.40625 25.148438 105.410156 25.148438 105.410156 C 34.289062 110.371094 43.351562 115.285156 52.671875 120.347656 C 53.761719 118.101562 54.675781 116.230469 55.59375 114.339844 C 50.308594 111.257812 45.273438 108.332031 40.140625 105.34375 L 61.375 103.421875 C 61.375 103.421875 63.707031 101.332031 65.429688 96.363281 C 57.246094 90.242188 49.125 84.179688 40.863281 78.015625 Z M 79.511719 70.226562 C 75.273438 60.316406 62.144531 49.726562 62.144531 49.726562 C 60.585938 51.511719 59.289062 52.988281 57.957031 54.5 C 57.957031 54.5 67.515625 61.820312 72.3125 69.546875 C 73.527344 71.5 74.050781 73.84375 73.648438 76.117188 C 73.28125 78.222656 72.164062 80.390625 69.167969 80.644531 C 61.621094 81.3125 52.636719 72.988281 49.183594 69.445312 C 49.007812 69.28125 48.84375 69.101562 48.664062 68.914062 C 48.367188 68.601562 48.140625 68.355469 47.976562 68.171875 C 47.292969 69.027344 45.445312 71.386719 44.007812 73.628906 C 44.117188 74.023438 44.402344 74.402344 44.878906 74.8125 C 49.484375 78.722656 54.164062 82.519531 59.699219 85.097656 C 62.082031 86.207031 64.488281 86.972656 66.992188 86.972656 C 66.992188 86.972656 72.539062 87.828125 76.976562 82.585938 C 79.847656 79.175781 81.261719 74.402344 79.511719 70.226562 Z M 81.679688 39.894531 C 84.242188 36.894531 85.441406 35.390625 88.8125 31.554688 C 87.1875 30.117188 85.875 27.9375 84.757812 26.984375 C 80.167969 30.773438 66.605469 44.503906 64.707031 47.296875 C 66.160156 48.882812 67.65625 50.515625 69.332031 52.339844 C 71.917969 49.605469 74.214844 47.179688 76.554688 44.699219 C 76.554688 44.699219 90.382812 59.59375 94.300781 63.046875 C 94.59375 63.269531 94.875 63.507812 95.175781 63.726562 C 96.515625 62.160156 97.828125 60.613281 99.125 59.085938 C 93.207031 52.5625 87.46875 46.253906 81.679688 39.894531 Z M 198.84375 28.09375 C 194.582031 33.542969 189.527344 36.320312 181.792969 33.574219 C 177.851562 32.175781 175.5 28.964844 174.277344 25.078125 C 173.390625 22.261719 172.675781 19.328125 173.113281 16.304688 C 173.539062 13.355469 174.164062 10.488281 175.765625 8.121094 C 175.765625 8.121094 177.957031 4.660156 182.292969 2.476562 C 182.546875 2.367188 189.410156 -0.457031 195.890625 4.496094 C 197.636719 5.902344 199.117188 7.601562 200.265625 9.625 C 200.980469 10.882812 201.316406 12.394531 201.644531 13.832031 C 202.835938 19 202.078125 23.960938 198.84375 28.09375 Z M 196.109375 18.152344 C 196.054688 15.210938 194.460938 7.980469 188.558594 7.929688 C 182.652344 7.882812 181.363281 10.742188 181.363281 10.742188 C 180.171875 12.046875 179.566406 13.714844 179.277344 15.359375 C 179.121094 16.074219 179.039062 16.804688 179.066406 17.550781 C 179 20.007812 179.460938 21.988281 179.460938 21.988281 C 181.875 30.1875 188.507812 28.914062 188.507812 28.914062 C 194.984375 27.617188 196.167969 21.085938 196.109375 18.152344 Z M 226.972656 17.027344 C 224.59375 20.058594 221.316406 20.585938 218.023438 21.265625 C 216.285156 21.628906 214.445312 21.519531 212.679688 21.628906 C 212.679688 21.628906 212.746094 32.472656 212.328125 35.605469 C 210.617188 35.667969 206.339844 35.546875 206.339844 35.546875 C 206.160156 33.320312 206.257812 27.019531 206.429688 20.550781 C 206.382812 19.730469 206.332031 18.910156 206.339844 18.085938 C 206.382812 13.921875 206.496094 9.753906 206.613281 5.582031 L 206.613281 5.566406 C 206.621094 5.410156 206.621094 5.253906 206.628906 5.097656 C 206.628906 4.972656 206.644531 4.851562 206.667969 4.726562 L 206.785156 2.773438 C 210.5625 2.46875 216.175781 2.96875 216.175781 2.96875 C 216.183594 2.96875 216.183594 2.96875 216.195312 2.96875 C 217.0625 3.027344 219.082031 3.28125 221.496094 4.070312 C 223.765625 4.898438 225.265625 6.023438 226.21875 6.996094 C 226.769531 7.480469 227.238281 8.105469 227.613281 8.8125 C 227.671875 8.910156 227.703125 8.984375 227.703125 8.984375 L 227.695312 8.984375 C 228.847656 11.332031 228.902344 14.5625 226.972656 17.027344 Z M 222.785156 11.375 C 222.785156 11.375 221.628906 8.539062 217.121094 8.121094 C 217.121094 8.121094 214.46875 7.773438 212.605469 8.023438 L 212.605469 16.589844 C 212.605469 16.589844 220.070312 17.132812 222.269531 14.5625 C 223.296875 13.371094 223.320312 12.285156 222.785156 11.375 Z M 170.910156 8.835938 C 170.640625 6.535156 170.820312 3.9375 170.617188 2.179688 C 162.25 2.179688 153.21875 2.910156 144.949219 2.910156 C 144.792969 5.367188 145.074219 7.5625 144.933594 9.796875 C 148.40625 9.796875 151.550781 9.527344 154.492188 9.527344 C 154.992188 18.085938 155.5 26.707031 156.019531 35.546875 C 158.242188 35.390625 160.328125 35.25 162.21875 35.117188 L 161.058594 9.34375 Z M 137.75 16.835938 C 137.742188 16.828125 137.742188 16.820312 137.734375 16.8125 C 137.734375 16.8125 137.726562 16.8125 137.726562 16.820312 Z M 143.539062 30.34375 C 143.398438 26.820312 141.140625 24.347656 138.375 22.753906 C 137.167969 22.054688 135.886719 21.496094 134.570312 20.980469 C 130.171875 19.730469 128.621094 18.972656 128.183594 18.726562 C 128.175781 18.71875 128.160156 18.71875 128.152344 18.710938 C 128.070312 18.660156 128.035156 18.636719 128.035156 18.636719 C 127.796875 18.480469 127.558594 18.285156 127.355469 18.046875 C 127.332031 18.019531 127.3125 17.996094 127.296875 17.980469 C 127.238281 17.90625 127.191406 17.832031 127.132812 17.757812 C 127.125 17.742188 127.109375 17.726562 127.101562 17.707031 C 126.476562 16.707031 126.394531 15.203125 128.167969 13.609375 C 131.015625 11.039062 134.480469 13.289062 134.480469 13.289062 C 135.789062 14.050781 136.894531 15.34375 137.742188 16.820312 C 139.34375 15.703125 140.945312 14.585938 142.511719 13.492188 C 141.476562 10.503906 139.472656 8.6875 136.984375 7.429688 C 133.117188 5.476562 129.195312 5.746094 125.246094 7.371094 C 120.554688 9.304688 117.996094 14.757812 119.734375 19.492188 C 120.582031 21.792969 122.414062 23.363281 124.433594 24.488281 C 126.609375 25.703125 128.980469 26.589844 131.335938 27.445312 C 132.117188 27.734375 132.863281 28.042969 133.539062 28.4375 C 133.539062 28.4375 136.410156 29.785156 136.863281 31.460938 C 137.3125 33.140625 136.410156 35.949219 131.992188 35.832031 L 131.992188 35.824219 C 131.179688 35.859375 130.3125 35.71875 129.449219 35.398438 C 129.160156 35.292969 128.882812 35.175781 128.59375 35.0625 L 128.59375 35.070312 C 123.035156 33.359375 119.882812 28.898438 119.882812 28.898438 C 118.59375 30.445312 117.378906 31.898438 116.195312 33.3125 C 118.355469 36.6875 122.667969 40.203125 126.125 41.191406 C 127.640625 41.625 129.144531 41.863281 130.632812 41.882812 C 130.632812 41.882812 141.171875 42.695312 143.144531 33.863281 L 143.136719 33.863281 C 143.449219 32.785156 143.585938 31.617188 143.539062 30.34375 Z M 299.679688 49.308594 C 299.613281 49.503906 299.539062 49.703125 299.457031 49.898438 L 299.457031 49.890625 C 299.277344 50.5 299.023438 51.089844 298.675781 51.660156 C 297.003906 54.433594 294.523438 55.765625 291.171875 55.398438 C 289.742188 61.105469 288.371094 66.613281 286.894531 72.527344 C 285.246094 71.15625 283.675781 69.855469 281.984375 68.460938 C 283.257812 63.539062 284.523438 58.683594 285.804688 53.730469 C 283.289062 52.199219 280.828125 50.6875 278.132812 49.054688 L 271.046875 60.761719 C 271.046875 60.761719 266.992188 57.574219 266.253906 57.292969 L 273.964844 44.855469 C 277.148438 39.644531 280.34375 34.429688 283.570312 29.144531 C 285.335938 30.15625 286.835938 31.011719 288.371094 31.890625 C 288.125 32.605469 287.929688 33.179688 287.816406 33.535156 C 287.816406 33.535156 292.570312 35.390625 297.085938 39.554688 C 299.753906 42.027344 300.851562 45.867188 299.679688 49.308594 Z M 293.777344 44.976562 C 291.871094 41.3125 288.167969 40.246094 285 38.308594 C 284.300781 39.382812 283.71875 40.285156 283.132812 41.175781 C 282.550781 42.054688 281.960938 42.925781 281.46875 43.648438 C 283.078125 44.773438 284.570312 45.949219 286.1875 46.917969 C 287.632812 47.78125 289.160156 48.550781 290.746094 49.109375 C 291.910156 49.523438 293.125 49.054688 293.800781 48.003906 C 294.390625 47.082031 294.351562 46.085938 293.777344 44.976562 Z M 256.5 14.90625 C 255.660156 16.820312 254.832031 18.742188 253.988281 20.683594 C 256.984375 22.015625 259.667969 23.214844 262.453125 24.453125 C 258.804688 32.792969 255.242188 40.953125 251.582031 49.324219 C 251.582031 49.324219 256.566406 51.707031 257.125 52.042969 L 257.425781 51.453125 C 257.445312 51.460938 257.460938 51.460938 257.46875 51.46875 C 261.402344 43.515625 265.277344 35.667969 269.265625 27.609375 C 272.222656 29.015625 275.144531 30.410156 278.125 31.832031 C 279.128906 29.902344 280.023438 28.183594 280.925781 26.460938 C 272.832031 22.628906 264.742188 18.808594 256.5 14.90625 Z M 344.34375 108.367188 C 341.070312 109.714844 338.089844 110.890625 335.15625 112.15625 C 332.21875 113.417969 329.3125 114.777344 326.011719 116.269531 C 327.207031 113.871094 328.21875 111.882812 329.210938 109.886719 C 330.46875 107.355469 331.675781 104.808594 332.972656 102.304688 C 334.46875 99.410156 336.058594 96.578125 337.554688 93.683594 C 337.800781 93.199219 338.03125 92.433594 337.824219 92.03125 C 337.003906 90.457031 336.003906 88.976562 334.941406 87.265625 C 334.941406 87.265625 331.789062 88.933594 327.667969 91.113281 C 325.9375 91.957031 324.210938 92.804688 322.503906 93.691406 C 319.1875 95.425781 315.902344 97.226562 312.652344 99.066406 C 310.582031 100.167969 309.105469 100.964844 308.6875 101.203125 L 309.070312 101.84375 C 309.070312 101.84375 309.070312 101.84375 309.070312 101.851562 C 309.867188 103.15625 310.566406 104.308594 311.394531 105.671875 L 328.40625 97.792969 C 328.285156 97.964844 328.160156 98.136719 328.046875 98.308594 C 327.816406 98.828125 327.636719 99.378906 327.339844 99.855469 C 325.582031 102.714844 323.703125 105.5 322.050781 108.425781 C 320.171875 111.761719 318.488281 115.210938 316.75 118.621094 C 316.519531 119.082031 316.199219 119.746094 316.371094 120.117188 C 317.050781 121.621094 317.90625 123.042969 318.660156 124.4375 C 328.234375 120.898438 337.4375 117.496094 346.832031 114.027344 C 345.894531 111.882812 345.109375 110.101562 344.34375 108.367188 Z M 353.851562 142.832031 C 354.304688 141 354.371094 139.09375 353.960938 137.097656 C 352.398438 129.582031 346.832031 124.421875 338.859375 124.242188 C 334.746094 124.148438 331.011719 125.152344 327.570312 127.171875 C 323.003906 129.859375 320.074219 133.738281 320.542969 139.292969 C 320.871094 143.253906 322.847656 146.457031 326.222656 148.691406 C 326.667969 148.980469 327.109375 149.257812 327.675781 149.621094 C 326.011719 150.121094 324.621094 150.53125 322.90625 151.050781 C 323.308594 152.488281 323.703125 153.886719 324.121094 155.363281 C 327.777344 154.535156 331.078125 153.976562 334.261719 153.023438 C 336.414062 152.371094 338.664062 151.980469 340.789062 151.246094 C 342.085938 150.859375 343.171875 150.507812 343.875 150.210938 L 342.75 146.828125 C 342.660156 146.53125 342.578125 146.234375 342.496094 145.929688 C 341.496094 142.242188 340.566406 138.527344 339.492188 134.863281 C 339.410156 134.585938 339.253906 134.332031 339.058594 134.09375 L 334.632812 135.429688 C 335.492188 138.957031 336.347656 142.429688 337.226562 146.039062 C 336.636719 146.113281 336.078125 146.25 335.527344 146.242188 C 333.128906 146.234375 331.019531 145.382812 328.964844 144.164062 C 326.9375 142.964844 325.8125 140.671875 325.738281 138.414062 C 325.671875 135.339844 328.554688 133 328.917969 132.71875 C 332.636719 130.15625 336.667969 128.660156 341.519531 129.84375 C 345.117188 130.714844 347.167969 133.113281 348.5 136.097656 C 349.917969 139.277344 349.855469 142.554688 346.652344 145.070312 C 347.308594 146.507812 347.925781 147.878906 348.507812 149.167969 C 348.5 149.167969 352.433594 148.074219 353.851562 142.832031 Z M 329.269531 76.527344 C 326.75 73.414062 325.886719 72.550781 325.886719 72.550781 C 317.980469 78.558594 310.214844 84.457031 302.355469 90.421875 C 303.90625 92.28125 305.203125 93.824219 306.558594 95.441406 C 306.996094 95.128906 307.199219 95 307.386719 94.851562 C 307.386719 94.851562 318.046875 87.292969 325 82.164062 C 325.589844 81.789062 326.183594 81.402344 326.765625 81.015625 C 327.988281 80.191406 329.066406 79.140625 330.445312 78 C 329.96875 77.5625 329.597656 77.054688 329.269531 76.527344 Z M 261.835938 131.78125 C 261.476562 131.609375 261.105469 131.4375 260.734375 131.28125 C 260.726562 131.28125 260.710938 131.273438 260.710938 131.273438 C 249.527344 127.640625 239.460938 132.34375 238.796875 132.664062 C 238.789062 132.671875 238.773438 132.679688 238.757812 132.679688 C 238.757812 132.679688 238.007812 132.992188 237.171875 133.671875 C 236.792969 133.953125 236.480469 134.265625 236.226562 134.601562 C 235.464844 135.496094 234.816406 136.730469 234.816406 138.347656 C 234.9375 138.71875 235.027344 139.195312 235.234375 139.613281 C 235.578125 140.3125 235.996094 140.894531 236.488281 141.394531 C 236.488281 141.394531 236.613281 141.527344 236.867188 141.734375 C 237.292969 142.09375 237.761719 142.40625 238.289062 142.660156 C 240.09375 143.65625 243.4375 144.9375 249.078125 145.289062 C 258.691406 145.890625 263.78125 143.441406 265.6875 141.394531 C 266.902344 140.089844 267.132812 138.472656 267.074219 137.28125 C 266.671875 134.542969 263.550781 132.636719 261.835938 131.78125 Z M 109.605469 149.652344 C 111.113281 149.753906 112.625 149.816406 114.136719 149.890625 C 114.226562 149.898438 114.308594 149.898438 114.398438 149.898438 C 118.824219 149.867188 125.21875 149.121094 128.570312 145.421875 C 128.59375 145.398438 128.609375 145.363281 128.636719 145.332031 C 128.964844 144.804688 130.835938 141.289062 124.25 137.542969 C 123.28125 137.015625 122.519531 136.679688 122.339844 136.605469 C 122.304688 136.597656 122.273438 136.582031 122.230469 136.566406 C 112.042969 133.523438 102.65625 135.777344 102 135.941406 C 101.066406 136.21875 100.144531 136.546875 99.25 136.925781 C 97.253906 137.765625 95.523438 139.925781 95.300781 141.847656 C 95.300781 141.90625 96.246094 148.175781 109.605469 149.652344 Z M 150.140625 238.109375 L 161.214844 248.394531 L 162.71875 246.554688 C 161.707031 245.160156 152.355469 236.695312 152.355469 236.695312 Z M 95.011719 237.878906 L 106.246094 238.585938 L 106.515625 236.152344 L 94.667969 235.988281 M 229.230469 227.699219 C 228.722656 227.804688 228.15625 227.921875 226.859375 228.191406 C 228.269531 231.554688 229.558594 234.699219 230.941406 237.796875 L 232.984375 236.722656 C 231.761719 233.761719 230.527344 230.804688 229.230469 227.699219 Z M 240.816406 245.207031 L 250.917969 249.859375 L 252.402344 247.828125 L 241.65625 243.238281 Z M 182.136719 265.863281 L 184.203125 265.496094 L 182.375 255.019531 L 180.199219 255.117188 Z M 182.136719 265.863281 " fill-opacity="1" fill-rule="nonzero"/><path fill="#ffffff" d="M 250.554688 210.027344 C 251.648438 210.339844 252.34375 210.535156 253.09375 210.75 C 252.207031 215.753906 251.308594 220.757812 250.421875 225.726562 C 249.519531 225.472656 248.683594 225.242188 247.9375 225.027344 C 248.804688 220.058594 249.675781 215.078125 250.554688 210.027344 Z M 216.167969 250.210938 C 215.742188 249.035156 215.363281 247.984375 215.019531 247.03125 C 209.953125 250.023438 205.066406 252.914062 200.183594 255.808594 C 200.386719 256.992188 200.550781 257.910156 200.796875 259.308594 C 206.046875 256.203125 211.085938 253.21875 216.167969 250.210938 Z M 225.503906 264.707031 C 222.074219 268.871094 218.738281 272.929688 215.316406 277.085938 C 216.210938 277.875 216.84375 278.441406 217.628906 279.148438 C 220.691406 275.117188 223.730469 271.105469 226.890625 266.949219 C 226.613281 266.496094 226.175781 265.789062 225.503906 264.707031 Z M 85.761719 179.148438 C 83.566406 175.78125 81.171875 172.09375 78.757812 168.378906 C 77.796875 169.027344 76.933594 169.601562 76.152344 170.128906 C 78.511719 173.949219 80.53125 178.105469 83.863281 181.597656 C 84.585938 180.660156 85.121094 179.972656 85.761719 179.148438 Z M 172.652344 107.929688 C 173.53125 108.792969 174.15625 109.402344 174.746094 109.984375 C 178.730469 107.71875 182.585938 105.523438 186.808594 103.117188 C 186.398438 102.269531 185.988281 101.414062 185.410156 100.207031 C 181.011719 102.878906 177.027344 105.285156 172.652344 107.929688 Z M 269.429688 205.375 C 270.644531 205.113281 271.523438 204.933594 272.394531 204.742188 C 271.894531 200.050781 271.402344 195.5 270.890625 190.75 C 269.941406 190.875 269.128906 190.972656 267.921875 191.128906 C 268.429688 195.984375 268.921875 200.59375 269.429688 205.375 Z M 152.191406 262.742188 C 151.394531 262.847656 150.699219 262.929688 149.761719 263.054688 C 151.265625 267.507812 152.734375 271.84375 154.269531 276.378906 C 155.335938 276.027344 156.082031 275.789062 157.117188 275.445312 C 155.410156 271.054688 153.792969 266.890625 152.191406 262.742188 Z M 172.777344 75.378906 C 173.390625 76.050781 174.082031 76.808594 174.871094 77.671875 C 177.027344 73.867188 178.992188 70.40625 180.988281 66.90625 C 179.902344 66.332031 179.105469 65.914062 178.210938 65.4375 C 176.378906 68.78125 174.625 71.992188 172.777344 75.378906 Z M 115.417969 199.953125 C 119.167969 198.484375 123.117188 198.105469 126.535156 196.410156 C 126.535156 195.835938 126.550781 195.542969 126.527344 195.246094 C 126.5 194.964844 126.445312 194.695312 126.34375 194.078125 C 122.320312 195.222656 118.429688 196.328125 114.347656 197.496094 C 114.832031 198.613281 115.121094 199.28125 115.417969 199.953125 Z M 134.085938 226.476562 C 133.21875 222.992188 132.355469 219.550781 131.453125 215.976562 C 130.640625 216.222656 129.890625 216.453125 129.121094 216.691406 C 130.269531 220.265625 130.359375 223.992188 131.910156 227.328125 C 132.855469 226.960938 133.511719 226.707031 134.085938 226.476562 Z M 128.621094 245.257812 C 128.085938 244.871094 127.59375 244.527344 126.917969 244.035156 C 125.113281 247.871094 123.347656 251.59375 121.542969 255.429688 C 122.09375 255.742188 122.503906 255.964844 123.257812 256.390625 C 125.695312 252.949219 126.582031 248.796875 128.621094 245.257812 Z M 225.414062 110.199219 C 222.917969 107.242188 220.042969 109.558594 220.042969 109.558594 C 218.082031 111.300781 219.007812 113.566406 219.148438 113.878906 C 219.90625 114.921875 221.1875 115.738281 222.402344 115.753906 C 224.199219 115.777344 225.929688 114.019531 226.011719 112.074219 C 226.046875 111.40625 225.816406 110.757812 225.414062 110.199219 Z M 138.054688 112.210938 C 136.179688 109.582031 133.636719 110.890625 133.28125 111.085938 C 132.453125 111.726562 131.773438 112.605469 131.617188 113.445312 C 131.320312 114.980469 131.894531 116.050781 133.636719 117.058594 C 134.457031 117.40625 135.789062 117.542969 137.527344 116.417969 C 138.367188 115.664062 138.792969 114.757812 138.660156 113.839844 C 138.585938 113.296875 138.367188 112.730469 138.054688 112.210938 Z M 132.511719 176.898438 C 133.054688 177.242188 135.457031 177.234375 135.457031 177.234375 L 137.132812 163.496094 L 134.433594 162.980469 Z M 248.257812 162.742188 C 248.257812 163.84375 248.257812 164.828125 248.257812 165.929688 C 252.894531 164.597656 257.507812 163.269531 262.3125 161.886719 L 262.320312 158.683594 C 257.574219 160.054688 252.925781 161.394531 248.257812 162.742188 Z M 286.515625 153.136719 C 286.722656 157.84375 286.929688 162.398438 287.132812 167.113281 C 287.773438 167.152344 288.414062 167.203125 289.308594 167.261719 L 288.273438 152.570312 C 287.765625 152.734375 287.28125 152.890625 286.515625 153.136719 Z M 216.523438 140.046875 C 215.90625 140.492188 215.527344 140.773438 214.921875 141.214844 L 222.582031 149.90625 C 223.484375 148.996094 224.082031 148.386719 224.609375 147.855469 C 222.082031 144.707031 219.378906 142.25 216.523438 140.046875 Z M 254.609375 103.042969 C 254.488281 103.230469 254.332031 103.363281 254.152344 103.476562 L 252.558594 104.988281 C 256.179688 108.894531 259.316406 112.96875 263.511719 116.074219 C 263.996094 115.335938 264.363281 114.777344 264.734375 114.207031 C 261.300781 110.429688 258.011719 106.789062 254.609375 103.042969 Z M 254.609375 103.042969 " fill-opacity="1" fill-rule="nonzero"/></svg>