<svg xmlns="http://www.w3.org/2000/svg" xmlns:xlink="http://www.w3.org/1999/xlink" width="500" zoomAndPan="magnify" viewBox="0 0 375 374.999991" height="500" preserveAspectRatio="xMidYMid meet" version="1.0"><path fill="#ffffff" d="M 368.214844 209.179688 C 363.722656 217.945312 356.429688 224.324219 347.625 227.542969 C 347.976562 232.941406 348.15625 238.300781 348.277344 245.554688 C 348.824219 257.679688 334.578125 266.332031 324.101562 260.160156 C 309.863281 252.351562 294.714844 245.652344 279.386719 240.308594 C 231.4375 223.488281 182.078125 221.21875 129.046875 227.871094 C 110.398438 231.265625 91.183594 238.109375 87.03125 239.472656 C 75.890625 243.136719 64.878906 247.578125 54.300781 252.664062 C 46.566406 256.535156 36.460938 253.183594 32.671875 245.359375 C 32.671875 245.359375 4.078125 189.210938 4.078125 189.210938 C 0.0195312 181.242188 3 171.667969 10.867188 167.417969 C 88.554688 120.847656 203.027344 108.695312 288.484375 131.175781 C 305.816406 135.542969 321.960938 140.117188 338.4375 146.679688 C 350.890625 150.960938 361.027344 160.167969 365.59375 171.363281 C 372.40625 181.8125 375 197.433594 368.214844 209.179688 Z M 368.214844 209.179688 " fill-opacity="1" fill-rule="nonzero"/><path fill="#000000" d="M 84.5 223.039062 C 84.746094 223.730469 84.703125 224.492188 84.378906 225.152344 C 84.054688 225.808594 83.480469 226.3125 82.785156 226.539062 C 71.082031 230.386719 59.515625 235.050781 48.402344 240.394531 C 48.019531 240.578125 47.621094 240.664062 47.222656 240.664062 C 46.230469 240.664062 45.277344 240.121094 44.796875 239.179688 L 20.226562 190.933594 C 20.21875 190.921875 20.214844 190.90625 20.210938 190.890625 L 16.207031 183.03125 C 15.535156 181.710938 16.035156 180.101562 17.335938 179.398438 C 24.160156 175.707031 27.738281 173.890625 34.742188 170.558594 C 35.109375 170.386719 35.507812 170.296875 35.910156 170.296875 C 36.230469 170.296875 36.550781 170.351562 36.859375 170.46875 C 37.546875 170.722656 38.105469 171.25 38.402344 171.921875 L 41.335938 178.59375 C 41.8125 178.882812 42.195312 179.308594 42.421875 179.828125 L 55.785156 210.222656 C 62.085938 207.582031 66.242188 206.011719 73.472656 203.492188 C 73.769531 203.386719 74.070312 203.339844 74.367188 203.339844 C 75.488281 203.339844 76.535156 204.035156 76.933594 205.152344 L 78.605469 209.855469 L 79.136719 211.355469 C 79.953125 211.589844 80.648438 212.195312 80.953125 213.054688 L 82.652344 217.839844 Z M 157.03125 177.847656 C 157.703125 186.664062 154.378906 195.550781 147.671875 202.875 C 141.621094 209.480469 133.226562 214.347656 124.632812 216.238281 C 121.914062 216.835938 119.042969 217.140625 116.109375 217.140625 C 101.699219 217.140625 84.625 209.390625 79.875 194.578125 C 79.851562 194.507812 79.835938 194.4375 79.816406 194.367188 C 78.117188 192.0625 76.761719 189.496094 75.855469 186.671875 C 73.554688 179.496094 74.601562 171.820312 78.882812 164.46875 C 84.792969 154.328125 96.117188 146.214844 107.734375 143.800781 C 110.597656 143.207031 113.640625 142.90625 116.769531 142.90625 C 131.40625 142.90625 147.535156 149.601562 151.929688 164.140625 C 154.757812 167.878906 156.617188 172.429688 157.03125 177.847656 Z M 116.941406 190.160156 C 126.382812 188.257812 131.269531 181.804688 130.019531 172.894531 C 129.996094 172.71875 129.957031 172.550781 129.929688 172.375 C 127.625 170.285156 124.46875 169.160156 120.621094 169.160156 C 118.988281 169.160156 117.246094 169.371094 115.457031 169.789062 C 109.914062 171.078125 105.804688 173.703125 103.578125 177.386719 C 101.914062 180.132812 101.417969 183.386719 102.101562 186.84375 C 104.613281 189.320312 108.085938 190.640625 112.351562 190.640625 C 113.816406 190.640625 115.359375 190.476562 116.941406 190.160156 Z M 219.59375 150.503906 C 222.769531 154.175781 224.289062 158.597656 224.078125 163.6875 C 224.046875 164.425781 223.722656 165.117188 223.171875 165.605469 C 222.671875 166.054688 222.027344 166.296875 221.359375 166.296875 C 221.292969 166.296875 221.230469 166.296875 221.164062 166.292969 C 216.371094 165.945312 213.085938 165.75 209.449219 165.617188 C 213.640625 168.230469 217 171.824219 217.984375 177.15625 C 221.019531 180.394531 222.824219 184.71875 222.179688 190.738281 C 220.851562 203.140625 210.132812 211.152344 194.867188 211.152344 C 194.503906 211.152344 194.140625 211.148438 193.773438 211.140625 C 181.539062 210.839844 168.640625 205.09375 165.5 192.992188 C 163.019531 189.976562 161.347656 186.265625 160.882812 181.828125 C 160.804688 181.089844 161.03125 180.351562 161.511719 179.785156 C 161.992188 179.21875 162.683594 178.871094 163.425781 178.828125 C 167.492188 178.582031 170.441406 178.433594 173.550781 178.34375 C 169.023438 175.898438 165.34375 172.308594 164.171875 166.4375 C 161.738281 163.847656 160.085938 160.449219 159.800781 155.828125 C 159.503906 151.023438 161.050781 146.738281 164.390625 143.089844 C 170.816406 136.082031 182.195312 133.367188 189.984375 133.171875 C 190.316406 133.164062 190.648438 133.160156 190.980469 133.160156 C 200.753906 133.160156 209.691406 136.394531 214.886719 141.8125 C 217.304688 144.332031 218.867188 147.25 219.59375 150.503906 Z M 189.792969 185.460938 C 189.871094 185.464844 189.949219 185.464844 190.027344 185.464844 C 191.132812 185.464844 192.070312 185.269531 192.835938 184.984375 C 190.917969 184.257812 188.613281 183.574219 185.949219 182.828125 C 185.472656 182.695312 184.988281 182.558594 184.496094 182.417969 C 185.0625 183.953125 186.410156 185.375 189.792969 185.460938 Z M 198.46875 160.777344 C 197.273438 159.085938 194.6875 158.835938 193.402344 158.828125 L 193.351562 158.828125 C 193.160156 158.828125 192.976562 158.839844 192.789062 158.855469 C 193.929688 159.261719 195.105469 159.65625 196.28125 160.042969 C 196.992188 160.28125 197.722656 160.523438 198.46875 160.777344 Z M 356.105469 202.964844 C 351.765625 211.429688 343.71875 216.285156 334.03125 216.285156 C 333.691406 216.285156 333.351562 216.28125 333.007812 216.269531 C 334.109375 227.207031 334.46875 233.863281 334.667969 245.785156 C 334.683594 246.753906 334.183594 247.65625 333.355469 248.160156 C 332.921875 248.421875 332.433594 248.550781 331.945312 248.550781 C 331.496094 248.550781 331.046875 248.441406 330.640625 248.21875 C 324.277344 244.734375 321.121094 243.125 314.570312 240.019531 C 313.667969 239.59375 313.070312 238.703125 313.019531 237.703125 C 312.933594 236.089844 312.851562 234.59375 312.765625 233.171875 C 312.070312 232.839844 311.335938 232.488281 310.550781 232.117188 C 309.648438 231.6875 309.050781 230.796875 308.996094 229.800781 C 308.714844 224.363281 308.445312 220.1875 308.089844 216.144531 L 302.230469 231.476562 C 301.96875 232.160156 301.441406 232.710938 300.769531 233 C 300.425781 233.152344 300.054688 233.226562 299.6875 233.226562 C 299.339844 233.226562 298.992188 233.160156 298.664062 233.027344 C 292.769531 230.632812 289.863281 229.535156 283.855469 227.445312 C 282.453125 226.960938 281.699219 225.4375 282.164062 224.023438 L 283.242188 220.742188 C 282.203125 220.371094 281.089844 219.980469 279.835938 219.542969 C 278.433594 219.054688 277.679688 217.53125 278.140625 216.121094 L 280.183594 209.902344 L 299.578125 150.839844 C 299.953125 149.695312 301.015625 148.964844 302.164062 148.964844 C 302.414062 148.964844 302.671875 149 302.921875 149.074219 C 315.363281 152.683594 321.722656 154.828125 333.800781 159.484375 C 342.5625 162.429688 349.910156 168.949219 352.992188 176.507812 C 353.296875 177.253906 353.558594 178.007812 353.777344 178.761719 C 355.109375 180.546875 356.210938 182.441406 357.011719 184.414062 C 359.503906 190.527344 359.191406 196.941406 356.105469 202.964844 Z M 318.992188 187.621094 C 319.527344 187.835938 320.078125 188.0625 320.683594 188.308594 C 322.230469 188.9375 323.621094 189.257812 324.8125 189.257812 C 326.25 189.257812 328.335938 188.863281 329.863281 185.457031 C 329.871094 185.441406 329.875 185.425781 329.882812 185.410156 C 329.714844 185.339844 329.554688 185.265625 329.378906 185.195312 C 325.988281 183.863281 323.957031 183.089844 321.121094 182.0625 Z M 280.777344 178.785156 C 280.40625 178.15625 279.796875 177.699219 279.089844 177.523438 C 278.007812 177.253906 276.988281 177.003906 276.015625 176.765625 L 277.039062 172.972656 C 277.230469 172.265625 277.128906 171.511719 276.757812 170.878906 C 276.386719 170.25 275.777344 169.796875 275.066406 169.617188 C 268.859375 168.070312 264.636719 167.097656 259.703125 166.121094 L 259.898438 165.152344 C 269.226562 166.753906 274.542969 167.890625 284.5 170.363281 C 284.71875 170.417969 284.9375 170.445312 285.15625 170.445312 C 286.347656 170.445312 287.441406 169.652344 287.777344 168.453125 L 291.332031 155.703125 C 291.53125 154.992188 291.429688 154.226562 291.054688 153.589844 C 290.679688 152.953125 290.0625 152.496094 289.34375 152.324219 C 288.316406 152.078125 287.28125 151.847656 286.25 151.609375 L 286.398438 151.066406 L 287.3125 147.800781 C 287.511719 147.085938 287.410156 146.324219 287.035156 145.6875 C 286.660156 145.046875 286.042969 144.589844 285.324219 144.417969 C 269.691406 140.683594 253.667969 137.914062 237.691406 136.191406 C 237.59375 136.183594 237.492188 136.175781 237.394531 136.175781 C 236.066406 136.175781 234.910156 137.148438 234.707031 138.492188 L 224.933594 203.195312 C 224.710938 204.679688 225.730469 206.066406 227.214844 206.292969 C 228.015625 206.414062 228.820312 206.554688 229.621094 206.683594 L 228.953125 211.097656 C 228.730469 212.582031 229.75 213.96875 231.234375 214.199219 C 244.207031 216.1875 257.148438 219.117188 269.703125 222.90625 C 269.960938 222.984375 270.226562 223.023438 270.488281 223.023438 C 270.945312 223.023438 271.394531 222.910156 271.800781 222.683594 C 272.441406 222.332031 272.914062 221.734375 273.109375 221.03125 L 273.726562 218.828125 L 276.667969 208.28125 C 277.070312 206.835938 276.226562 205.335938 274.785156 204.929688 C 273.671875 204.617188 272.625 204.324219 271.625 204.046875 L 272.648438 200.378906 C 273.050781 198.929688 272.207031 197.433594 270.761719 197.023438 C 264.125 195.152344 259.667969 193.996094 254.328125 192.8125 L 254.773438 190.605469 C 262.109375 192.015625 266.453125 193.011719 274.433594 195.082031 C 274.664062 195.140625 274.894531 195.171875 275.121094 195.171875 C 276.320312 195.171875 277.417969 194.371094 277.746094 193.15625 L 277.765625 193.082031 L 281.058594 180.875 C 281.25 180.167969 281.148438 179.417969 280.777344 178.785156 Z M 280.777344 178.785156 " fill-opacity="1" fill-rule="nonzero"/><path fill="#ff4f63" d="M 77.914062 216.046875 C 66.15625 219.914062 54.355469 224.671875 43.203125 230.039062 C 35.011719 213.957031 26.820312 197.875 18.632812 181.796875 C 25.46875 178.097656 28.929688 176.339844 35.910156 173.019531 C 41.910156 186.671875 47.914062 200.320312 53.914062 213.972656 C 62.015625 210.523438 66.113281 208.941406 74.367188 206.066406 C 75.785156 210.058594 76.496094 212.054688 77.914062 216.046875 Z M 77.914062 216.046875 " fill-opacity="1" fill-rule="nonzero"/><path fill="#a7e8ce" d="M 116.769531 145.628906 C 113.832031 145.628906 110.964844 145.910156 108.289062 146.46875 C 90.78125 150.105469 72.808594 168.265625 78.445312 185.839844 C 82.605469 198.804688 97.75 206.511719 112.085938 206.511719 C 114.789062 206.511719 117.464844 206.238281 120.027344 205.671875 C 135.984375 202.164062 151.628906 187.574219 150.296875 170.148438 C 149.007812 153.269531 131.996094 145.628906 116.769531 145.628906 Z M 117.480469 192.828125 C 115.699219 193.1875 113.988281 193.363281 112.351562 193.363281 C 104.027344 193.363281 97.78125 188.804688 95.652344 180.597656 C 93.070312 170.617188 98.871094 162.011719 110.820312 159.234375 C 112.84375 158.761719 114.777344 158.535156 116.601562 158.535156 C 125.335938 158.535156 131.492188 163.769531 132.71875 172.519531 C 134.175781 182.921875 128.132812 190.683594 117.480469 192.828125 Z M 253.730469 154.121094 C 252.667969 159.386719 252.136719 162.019531 251.078125 167.285156 C 260.457031 168.957031 265.132812 169.953125 274.410156 172.261719 C 273.085938 177.175781 272.421875 179.632812 271.097656 184.542969 C 262.160156 182.226562 257.65625 181.222656 248.613281 179.523438 C 247.460938 185.234375 246.886719 188.089844 245.738281 193.800781 C 255.523438 195.761719 260.386719 196.929688 270.023438 199.648438 C 268.601562 204.746094 267.890625 207.296875 266.46875 212.394531 C 253.875 208.59375 240.628906 205.59375 227.625 203.601562 C 230.882812 182.035156 234.140625 160.46875 237.398438 138.902344 C 253.3125 140.617188 269.117188 143.347656 284.6875 147.070312 C 283.265625 152.167969 282.554688 154.71875 281.132812 159.816406 C 270.238281 157.113281 264.75 155.976562 253.730469 154.121094 Z M 253.730469 154.121094 " fill-opacity="1" fill-rule="nonzero"/><path fill="#81e883" d="M 217.339844 155.671875 C 209.53125 155.109375 205.621094 154.933594 197.800781 154.800781 C 197.683594 150.730469 194.347656 148.238281 189.40625 148.199219 C 189.382812 148.199219 189.355469 148.199219 189.332031 148.199219 C 184.957031 148.199219 180.914062 151.257812 181.632812 154.082031 C 184.390625 164.886719 217.738281 161.1875 215.453125 182.542969 C 214.328125 193.074219 205.179688 200.527344 190.847656 200.527344 C 190.507812 200.527344 190.167969 200.523438 189.820312 200.515625 C 178.308594 200.234375 164.960938 194.601562 163.589844 181.546875 C 170.714844 181.113281 174.285156 180.992188 181.417969 180.945312 C 181.886719 185.757812 185.125 188.070312 189.726562 188.183594 C 189.828125 188.1875 189.929688 188.1875 190.027344 188.1875 C 194.675781 188.1875 198.257812 185.492188 197.902344 182.507812 C 196.269531 168.832031 163.765625 175.949219 162.519531 155.664062 C 161.683594 142.054688 178.671875 136.179688 190.054688 135.894531 C 190.363281 135.886719 190.671875 135.882812 190.984375 135.882812 C 202.71875 135.882812 217.933594 141.386719 217.339844 155.671875 Z M 349.660156 193.816406 C 346.082031 200.800781 339.273438 205.660156 330.011719 205.660156 C 328.703125 205.660156 327.347656 205.5625 325.941406 205.359375 C 327.308594 218.324219 327.707031 224.851562 327.925781 237.925781 C 321.519531 234.417969 318.273438 232.761719 311.714844 229.65625 C 311.082031 217.546875 310.519531 211.511719 308.914062 199.535156 C 307.375 198.925781 306.601562 198.625 305.054688 198.039062 C 301.300781 207.863281 299.421875 212.773438 295.667969 222.601562 C 289.738281 220.191406 286.75 219.066406 280.730469 216.972656 C 287.875 195.210938 295.019531 173.449219 302.164062 151.691406 C 314.570312 155.289062 320.726562 157.359375 332.878906 162.046875 C 346.074219 166.457031 356.765625 179.960938 349.660156 193.816406 Z M 326.351562 174.757812 C 322.035156 173.0625 319.863281 172.25 315.507812 170.695312 C 313.042969 177.144531 311.808594 180.371094 309.34375 186.824219 C 313.488281 188.355469 315.550781 189.15625 319.65625 190.828125 C 321.5625 191.605469 323.28125 191.976562 324.8125 191.976562 C 328.265625 191.976562 330.777344 190.074219 332.34375 186.570312 C 334.488281 181.785156 332.871094 177.316406 326.351562 174.757812 Z M 326.351562 174.757812 " fill-opacity="1" fill-rule="nonzero"/></svg>