<svg xmlns="http://www.w3.org/2000/svg" xmlns:xlink="http://www.w3.org/1999/xlink" width="500" zoomAndPan="magnify" viewBox="0 0 375 374.999991" height="500" preserveAspectRatio="xMidYMid meet" version="1.0"><defs><g/><clipPath id="aa80119228"><path d="M 0 28.125 L 375 28.125 L 375 346.875 L 0 346.875 Z M 0 28.125 " clip-rule="nonzero"/></clipPath></defs><g clip-path="url(#aa80119228)"><path fill="#29235c" d="M 367.085938 99.875 C 370.960938 93.957031 371.972656 86.617188 369.855469 79.867188 C 367.734375 73.121094 362.695312 67.679688 356.132812 65.042969 L 354.402344 64.351562 C 339.699219 58.234375 322.921875 53.824219 307.128906 51.929688 C 304.03125 51.558594 301.214844 51.335938 298.523438 51.242188 C 298.246094 51.234375 297.976562 51.226562 297.703125 51.226562 C 295.199219 51.226562 292.769531 51.644531 290.480469 52.382812 C 285.296875 48.816406 279.222656 46.199219 272.511719 44.800781 C 270.898438 44.464844 269.203125 44.191406 267.484375 43.996094 C 264.933594 43.707031 262.25 43.566406 259.277344 43.566406 C 258.140625 43.566406 257.046875 43.589844 255.980469 43.625 C 255.027344 42.015625 253.929688 40.472656 252.664062 39.027344 C 247.171875 32.753906 239.164062 28.859375 230.683594 28.34375 C 230.023438 28.300781 229.363281 28.28125 228.714844 28.28125 C 215.289062 28.28125 203.8125 36.507812 199.449219 48.152344 C 195.980469 49.695312 193.160156 50.988281 189.296875 52.800781 C 187.167969 51.417969 184.78125 50.363281 182.195312 49.714844 C 175.253906 47.976562 171.660156 47.125 164.710938 45.574219 C 163.007812 45.191406 161.285156 45.007812 159.574219 45.007812 C 154.636719 45.007812 149.777344 46.558594 145.714844 49.507812 C 143.695312 48.460938 141.613281 47.503906 139.425781 46.726562 C 133.703125 44.6875 127.582031 43.652344 121.222656 43.652344 C 119.011719 43.652344 116.8125 43.785156 114.628906 44.035156 C 113.152344 42.742188 111.519531 41.617188 109.757812 40.695312 C 105.058594 35.414062 98.273438 32.328125 91.132812 32.328125 C 81.027344 32.328125 72.121094 38.292969 68.226562 47.410156 C 66.386719 49.308594 64.882812 51.484375 63.742188 53.828125 C 60.734375 55.605469 58.238281 57.113281 54.546875 59.382812 C 53.179688 60.21875 51.921875 61.183594 50.78125 62.25 C 47.371094 60.269531 43.433594 59.132812 39.277344 59.074219 C 35.621094 59.023438 33.058594 59 30.273438 59 C 28.40625 59 26.441406 59.007812 23.976562 59.03125 C 17.308594 59.082031 10.976562 61.957031 6.542969 66.933594 C 2.109375 71.914062 -0.0117188 78.535156 0.707031 85.164062 L 0.84375 86.417969 C 0.972656 87.589844 1.175781 88.765625 1.457031 89.957031 C 3.289062 97.652344 5.628906 106.085938 10.246094 114.0625 C 9.351562 115.574219 8.59375 117.191406 8.023438 118.914062 C 3.078125 124.945312 1.1875 133.097656 3.082031 140.742188 C 4.980469 148.390625 10.464844 154.714844 17.648438 157.734375 C 22.054688 161.9375 27.847656 164.367188 33.976562 164.578125 C 34.226562 164.585938 34.46875 164.617188 34.722656 164.617188 C 34.746094 164.617188 34.78125 164.617188 34.8125 164.617188 C 34.820312 164.617188 34.828125 164.621094 34.839844 164.621094 C 36.46875 164.621094 38.058594 164.449219 39.601562 164.15625 C 41.015625 166.019531 42.703125 167.6875 44.644531 169.082031 C 48.519531 171.859375 53.105469 173.359375 57.789062 173.480469 C 55.085938 177.121094 53.316406 181.425781 52.722656 185.976562 C 51.378906 187.433594 50.179688 189.054688 49.183594 190.839844 C 42.128906 195.5 37.789062 203.511719 37.789062 212 C 37.789062 220.496094 42.136719 228.511719 49.183594 233.164062 C 50.0625 234.742188 51.101562 236.199219 52.265625 237.527344 C 50.925781 238.652344 49.59375 239.789062 48.3125 240.960938 C 48.253906 241.011719 48.195312 241.066406 48.140625 241.117188 C 44.421875 244.527344 41.851562 248.921875 40.707031 253.828125 C 40.707031 253.832031 40.707031 253.832031 40.707031 253.835938 C 40.703125 253.839844 40.703125 253.847656 40.703125 253.851562 C 40.507812 254.675781 40.375 255.511719 40.269531 256.351562 C 40.257812 256.445312 40.246094 256.542969 40.234375 256.640625 C 40.199219 256.929688 40.15625 257.222656 40.132812 257.511719 C 40.132812 257.511719 40.121094 257.667969 40.117188 257.746094 C 40.09375 258.035156 40.089844 258.320312 40.082031 258.609375 C 36.730469 262.667969 34.585938 267.800781 34 273.589844 C 33.359375 279.988281 34.101562 286.386719 36.203125 292.597656 C 36.441406 293.304688 36.714844 294.027344 37.019531 294.753906 C 37.023438 294.765625 37.03125 294.78125 37.039062 294.792969 C 37.042969 294.804688 37.046875 294.820312 37.050781 294.832031 C 37.882812 296.792969 38.898438 298.613281 40.054688 300.289062 C 39.949219 301.152344 39.871094 302.015625 39.851562 302.886719 C 39.636719 311.515625 43.691406 317.597656 45.023438 319.589844 C 46.25 321.433594 47.527344 323.28125 48.824219 325.101562 C 50.3125 327.183594 54.84375 333.523438 63.363281 336.417969 C 65.460938 337.132812 67.648438 337.585938 69.867188 337.769531 C 69.882812 337.769531 69.898438 337.773438 69.910156 337.773438 C 69.917969 337.773438 69.921875 337.773438 69.929688 337.773438 C 69.9375 337.773438 69.941406 337.777344 69.949219 337.777344 C 70.574219 337.824219 71.199219 337.851562 71.820312 337.851562 C 71.824219 337.851562 71.828125 337.851562 71.828125 337.851562 C 71.917969 337.851562 72.003906 337.863281 72.089844 337.863281 C 72.648438 337.863281 73.207031 337.8125 73.765625 337.777344 C 77.09375 339.496094 80.792969 340.433594 84.585938 340.433594 C 85.519531 340.433594 86.457031 340.378906 87.394531 340.265625 L 102.691406 338.433594 C 104.164062 338.257812 105.589844 337.945312 106.96875 337.511719 C 106.976562 337.511719 106.988281 337.511719 106.988281 337.511719 C 109.710938 337.511719 112.367188 337.289062 114.949219 336.890625 C 115.167969 337.183594 115.386719 337.476562 115.617188 337.757812 C 115.625 337.765625 115.632812 337.773438 115.636719 337.78125 C 115.964844 338.179688 116.300781 338.566406 116.648438 338.941406 C 116.738281 339.039062 116.839844 339.128906 116.929688 339.226562 C 117.199219 339.507812 117.46875 339.785156 117.75 340.054688 C 117.851562 340.148438 117.960938 340.238281 118.0625 340.332031 C 118.34375 340.585938 118.621094 340.84375 118.914062 341.089844 C 118.984375 341.148438 119.058594 341.199219 119.128906 341.253906 C 123.476562 344.800781 128.976562 346.824219 134.859375 346.824219 C 135.304688 346.824219 135.75 346.804688 136.195312 346.78125 C 136.253906 346.777344 136.3125 346.78125 136.375 346.777344 C 143.449219 346.355469 149.878906 342.988281 154.234375 337.574219 C 156.957031 338.054688 159.691406 338.3125 162.378906 338.3125 C 167.261719 338.3125 171.972656 337.519531 176.382812 335.957031 C 179.078125 335.003906 181.605469 333.792969 184 332.382812 C 184.5625 332.769531 185.125 333.15625 185.710938 333.519531 C 192.679688 337.878906 200.710938 340.179688 208.933594 340.179688 C 208.9375 340.179688 208.941406 340.179688 208.945312 340.179688 C 214.054688 340.179688 219.183594 339.253906 224.054688 337.511719 C 227.9375 340.742188 232.710938 342.996094 238.039062 343.859375 C 239.597656 344.109375 241.09375 344.230469 242.617188 344.230469 C 242.640625 344.230469 242.683594 344.230469 242.707031 344.230469 C 245.144531 344.222656 247.613281 343.875 250.0625 343.21875 C 250.222656 343.179688 250.382812 343.148438 250.539062 343.101562 C 253.746094 342.1875 256.699219 340.738281 259.316406 338.878906 L 269.523438 338.878906 C 275.347656 338.878906 280.699219 336.738281 284.839844 333.203125 C 289.4375 336.203125 294.839844 337.867188 300.257812 337.867188 C 300.34375 337.867188 300.433594 337.855469 300.519531 337.855469 C 300.523438 337.855469 300.527344 337.855469 300.53125 337.855469 C 301.148438 337.855469 301.769531 337.832031 302.394531 337.78125 C 302.410156 337.78125 302.421875 337.777344 302.433594 337.777344 C 302.433594 337.777344 302.4375 337.777344 302.4375 337.777344 C 302.4375 337.777344 302.4375 337.777344 302.441406 337.777344 C 304.667969 337.597656 306.867188 337.144531 308.960938 336.433594 C 317.519531 333.519531 322.046875 327.175781 323.53125 325.097656 C 324.796875 323.320312 326.074219 321.46875 327.332031 319.585938 C 328.660156 317.59375 332.699219 311.527344 332.496094 302.90625 C 332.476562 302.03125 332.398438 301.15625 332.292969 300.292969 C 333.441406 298.632812 334.445312 296.828125 335.273438 294.882812 C 335.28125 294.863281 335.292969 294.84375 335.300781 294.820312 C 335.617188 294.070312 335.898438 293.328125 336.144531 292.601562 C 338.25 286.378906 338.988281 279.984375 338.34375 273.574219 C 337.757812 267.792969 335.617188 262.664062 332.265625 258.605469 C 332.257812 258.320312 332.253906 258.035156 332.230469 257.75 C 332.230469 257.75 332.214844 257.53125 332.207031 257.425781 C 332.183594 257.140625 332.136719 256.855469 332.105469 256.570312 C 332.09375 256.484375 332.082031 256.398438 332.074219 256.308594 C 331.964844 255.488281 331.832031 254.664062 331.644531 253.851562 C 331.640625 253.835938 331.632812 253.824219 331.632812 253.808594 C 331.628906 253.792969 331.628906 253.78125 331.625 253.769531 C 330.46875 248.871094 327.890625 244.484375 324.175781 241.089844 C 324.128906 241.042969 324.082031 241 324.03125 240.957031 C 322.835938 239.867188 321.597656 238.8125 320.355469 237.761719 C 321.46875 236.46875 322.464844 235.050781 323.320312 233.523438 C 330.367188 228.867188 334.707031 220.859375 334.714844 212.375 C 334.71875 203.886719 330.382812 195.871094 323.320312 191.203125 C 322.324219 189.417969 321.125 187.792969 319.777344 186.332031 C 319.089844 181.050781 316.808594 176.101562 313.328125 172.136719 C 315.195312 172.378906 317.058594 172.515625 318.902344 172.515625 C 320.519531 172.515625 322.144531 172.421875 323.726562 172.234375 C 332.375 171.21875 340.226562 167.851562 347.058594 162.234375 C 348.898438 160.722656 350.546875 158.976562 351.96875 157.042969 L 352.726562 156.015625 C 354.710938 153.320312 356.023438 150.324219 356.726562 147.230469 C 367.601562 142.886719 374.976562 132.257812 374.976562 120.375 C 374.976562 112.570312 371.859375 105.492188 366.820312 100.277344 C 366.910156 100.140625 366.992188 100.019531 367.085938 99.875 Z M 367.085938 99.875 " fill-opacity="1" fill-rule="nonzero"/></g><path fill="#ff7d9c" d="M 255.300781 207.777344 C 254.480469 208.878906 253.367188 209.636719 251.984375 210.023438 C 250.035156 210.574219 247.863281 210.269531 246.03125 209.191406 C 245.664062 208.976562 245.359375 208.792969 245.289062 208.75 L 245.085938 208.605469 C 244.375 207.984375 243.628906 207.304688 242.941406 206.535156 C 242.84375 206.425781 242.75 206.316406 242.652344 206.203125 L 242.382812 205.886719 C 242.308594 205.800781 242.214844 205.699219 242.109375 205.597656 C 241.996094 205.421875 241.875 205.226562 241.765625 205.042969 C 241.664062 204.878906 241.570312 204.71875 241.476562 204.570312 C 240.890625 203.660156 240.34375 202.679688 239.851562 201.65625 L 239.707031 201.367188 C 239.664062 201.277344 239.613281 201.183594 239.570312 201.089844 L 239.476562 200.84375 C 239.191406 200.097656 238.914062 199.351562 238.667969 198.59375 C 238.355469 197.621094 238.070312 196.585938 237.800781 195.507812 C 240.519531 195.507812 243.207031 195.449219 245.859375 195.3125 C 247.921875 195.203125 249.871094 195.011719 251.722656 194.742188 L 251.722656 181.234375 C 249.34375 181.695312 246.722656 181.996094 243.699219 182.136719 L 243.390625 182.152344 C 242.972656 182.175781 242.550781 182.195312 242.15625 182.203125 L 240.542969 182.21875 C 239.085938 182.222656 237.632812 182.214844 236.179688 182.1875 C 236.050781 182.183594 235.925781 182.175781 235.796875 182.175781 C 235.546875 179.371094 235.347656 176.515625 235.222656 173.675781 C 235.128906 171.472656 235.082031 169.246094 235.070312 167.011719 C 235.921875 167.015625 236.773438 167.011719 237.628906 167.03125 C 240.667969 167.089844 243.765625 167.226562 246.839844 167.441406 C 251.851562 167.792969 256.960938 168.371094 262.019531 169.160156 L 263.332031 169.363281 L 267.402344 156.554688 L 265.636719 156.261719 C 252.578125 154.074219 239.898438 153.28125 227.949219 153.90625 C 225.882812 154.011719 223.9375 154.207031 222.082031 154.472656 L 221.988281 156.257812 C 221.292969 169.480469 221.9375 182.167969 223.902344 193.972656 C 225.152344 201.46875 227.292969 207.371094 230.445312 212.019531 C 232.878906 215.601562 238.105469 221.835938 245.808594 223.316406 C 247.3125 223.605469 248.796875 223.75 250.234375 223.75 C 252.425781 223.75 254.511719 223.414062 256.398438 222.746094 C 260.269531 221.378906 263.378906 219.039062 265.917969 215.597656 C 266.164062 215.261719 266.371094 214.894531 266.53125 214.496094 L 267.035156 213.273438 L 256.144531 206.640625 Z M 255.300781 207.777344 " fill-opacity="1" fill-rule="nonzero"/><path fill="#ff7d9c" d="M 155.175781 153.992188 C 141.332031 152.84375 127.09375 153.238281 112.851562 155.167969 C 110.882812 155.433594 108.859375 155.746094 106.65625 156.117188 L 104.945312 156.40625 L 104.945312 170.996094 L 107.371094 170.546875 C 109.890625 170.082031 112.125 169.710938 114.199219 169.410156 L 116.269531 169.128906 C 117.339844 168.992188 118.417969 168.867188 119.492188 168.75 C 120.527344 168.636719 121.566406 168.535156 122.53125 168.445312 L 123.441406 168.394531 C 123.484375 168.652344 123.519531 168.910156 123.558594 169.167969 L 123.839844 171.234375 C 123.976562 172.308594 124.101562 173.382812 124.21875 174.457031 C 124.332031 175.492188 124.433594 176.527344 124.523438 177.496094 L 125.238281 190.085938 C 125.355469 195.351562 124.734375 220.578125 124.621094 221.871094 L 124.429688 224.101562 L 138.816406 224.101562 L 138.972656 222.21875 C 140.183594 207.648438 139.613281 181.210938 137.800781 167.816406 C 137.792969 167.773438 137.789062 167.730469 137.78125 167.691406 C 141.875 167.65625 145.964844 167.753906 149.960938 167.988281 C 151.585938 168.082031 153.207031 168.207031 154.828125 168.34375 L 157.058594 168.535156 L 157.058594 154.148438 Z M 155.175781 153.992188 " fill-opacity="1" fill-rule="nonzero"/><path fill="#ff7d9c" d="M 199.769531 195.011719 C 199.964844 210.15625 200.140625 223.691406 200.148438 223.753906 L 213.496094 223.226562 C 213.457031 222.960938 212.3125 156.597656 212.3125 156.597656 L 199.25 153.824219 C 199.25 153.824219 199.414062 167.054688 199.605469 182.003906 C 190.539062 181.417969 182.9375 181.597656 178.636719 181.796875 C 178.644531 168.292969 178.65625 156.710938 178.65625 156.710938 L 165.644531 153.703125 C 165.644531 153.703125 165.261719 223.496094 165.28125 223.636719 L 178.636719 223.351562 C 178.617188 223.230469 178.621094 209.035156 178.632812 193.78125 C 184.339844 193.917969 191.847656 194.25 199.769531 195.011719 Z M 199.769531 195.011719 " fill-opacity="1" fill-rule="nonzero"/><path fill="#ff7d9c" d="M 285.875 245.160156 C 272.03125 244.007812 257.792969 244.40625 243.550781 246.335938 C 241.585938 246.601562 239.558594 246.910156 237.355469 247.28125 L 235.644531 247.574219 L 235.644531 262.164062 L 238.070312 261.714844 C 240.589844 261.25 242.828125 260.878906 244.898438 260.578125 L 246.96875 260.292969 C 248.042969 260.160156 249.117188 260.035156 250.191406 259.917969 C 251.226562 259.804688 252.265625 259.703125 253.234375 259.613281 L 254.144531 259.5625 C 254.183594 259.816406 254.222656 260.078125 254.257812 260.335938 L 254.542969 262.402344 C 254.675781 263.472656 254.800781 264.550781 254.917969 265.625 C 255.03125 266.660156 255.132812 267.695312 255.222656 268.664062 L 255.9375 281.253906 C 256.054688 286.519531 255.433594 311.746094 255.320312 313.039062 L 255.128906 315.269531 L 269.519531 315.269531 L 269.675781 313.382812 C 270.886719 298.816406 270.3125 272.375 268.5 258.984375 C 268.492188 258.941406 268.488281 258.898438 268.480469 258.859375 C 272.574219 258.824219 276.664062 258.921875 280.660156 259.152344 C 282.285156 259.25 283.910156 259.371094 285.527344 259.511719 L 287.757812 259.703125 L 287.757812 245.3125 Z M 285.875 245.160156 " fill-opacity="1" fill-rule="nonzero"/><path fill="#ff7d9c" d="M 225.910156 281.648438 C 224.078125 279.492188 221.398438 277.613281 218.152344 276.222656 C 216.5 275.515625 214.816406 274.96875 213.148438 274.425781 C 211.9375 274.027344 210.6875 273.617188 209.558594 273.183594 C 207.792969 272.394531 206.070312 271.425781 204.332031 270.253906 L 204.230469 270.179688 C 204.03125 270.011719 203.835938 269.84375 203.644531 269.667969 C 203.1875 269.246094 202.761719 268.808594 202.441406 268.429688 L 202.375 268.347656 C 202.28125 268.214844 202.191406 268.089844 202.105469 267.953125 C 201.957031 267.714844 201.808594 267.460938 201.726562 267.304688 L 201.644531 267.136719 C 201.511719 266.75 201.390625 266.316406 201.320312 266.019531 L 201.285156 265.804688 C 201.265625 265.363281 201.269531 264.871094 201.292969 264.472656 L 201.3125 264.328125 C 201.449219 263.601562 201.664062 262.785156 201.867188 262.195312 L 201.914062 262.078125 C 202.253906 261.363281 202.558594 260.796875 202.855469 260.332031 L 203.183594 259.855469 C 203.386719 259.609375 203.585938 259.375 203.800781 259.148438 C 204.070312 258.867188 204.355469 258.589844 204.621094 258.355469 L 204.71875 258.277344 C 204.800781 258.214844 204.894531 258.144531 204.90625 258.132812 L 204.996094 258.0625 C 205.453125 257.753906 205.984375 257.453125 206.476562 257.207031 L 206.621094 257.144531 C 207.085938 256.988281 207.59375 256.84375 207.984375 256.757812 L 208.160156 256.730469 C 208.695312 256.699219 209.269531 256.699219 209.722656 256.722656 L 209.886719 256.742188 C 210.503906 256.867188 211.167969 257.046875 211.710938 257.234375 L 211.84375 257.285156 C 212.484375 257.589844 213.003906 257.871094 213.433594 258.148438 L 213.90625 258.476562 C 214.1875 258.714844 214.417969 258.910156 214.640625 259.125 C 214.925781 259.402344 215.207031 259.695312 215.40625 259.921875 L 215.628906 260.199219 C 215.933594 260.644531 216.222656 261.140625 216.503906 261.707031 L 216.566406 261.84375 C 216.765625 262.398438 216.910156 262.890625 217.015625 263.355469 L 217.488281 265.382812 L 229.683594 258.34375 L 229.207031 257.113281 C 227.179688 251.867188 222.867188 247.402344 217.671875 245.175781 C 213.84375 243.53125 210.398438 242.925781 207.136719 243.328125 C 203.234375 243.800781 199.898438 245.070312 197.214844 247.105469 C 191.300781 251.585938 187.773438 258.398438 187.78125 265.328125 C 187.785156 268.726562 188.777344 272.132812 190.574219 274.925781 C 192.183594 277.429688 194.238281 279.519531 197.234375 281.703125 C 199.007812 282.996094 201.078125 284.140625 203.566406 285.203125 C 205.011719 285.816406 206.707031 286.519531 208.480469 287.066406 L 209.226562 287.296875 C 210.132812 287.574219 211.265625 287.917969 212.171875 288.253906 L 212.253906 288.285156 C 213.082031 288.667969 213.699219 288.984375 214.25 289.316406 C 214.488281 289.460938 214.726562 289.625 214.890625 289.734375 L 215.285156 290.046875 C 215.546875 290.28125 215.789062 290.523438 215.957031 290.707031 L 216.078125 290.851562 C 216.257812 291.128906 216.433594 291.433594 216.546875 291.648438 L 216.625 291.824219 C 216.75 292.210938 216.863281 292.625 216.9375 292.957031 L 216.960938 293.113281 C 217.042969 294.085938 217.035156 295.109375 216.957031 296.09375 L 216.9375 296.238281 C 216.832031 296.769531 216.683594 297.328125 216.539062 297.757812 L 216.484375 297.902344 C 216.160156 298.578125 215.851562 299.125 215.578125 299.535156 L 215.351562 299.835938 C 215.050781 300.183594 214.792969 300.460938 214.53125 300.71875 C 214.359375 300.890625 214.175781 301.054688 214.039062 301.179688 L 213.410156 301.664062 C 212.9375 301.972656 212.386719 302.277344 211.824219 302.550781 L 211.691406 302.609375 C 211.140625 302.800781 210.515625 302.972656 210.003906 303.085938 L 209.835938 303.113281 C 209.320312 303.144531 208.777344 303.148438 208.378906 303.128906 L 208.199219 303.109375 C 207.628906 302.992188 207.039062 302.839844 206.601562 302.691406 L 206.460938 302.636719 C 205.765625 302.304688 205.175781 301.972656 204.75 301.6875 L 204.40625 301.429688 C 204.117188 301.183594 203.835938 300.929688 203.570312 300.664062 C 203.347656 300.441406 203.144531 300.210938 203.023438 300.085938 L 202.878906 299.890625 C 202.761719 299.703125 202.558594 299.398438 202.53125 299.375 L 202.410156 299.222656 C 202.160156 298.8125 201.902344 298.351562 201.703125 297.945312 L 201.644531 297.804688 C 201.457031 297.269531 201.300781 296.710938 201.183594 296.144531 L 200.953125 295.070312 L 187.769531 293.445312 L 187.664062 295.082031 C 187.648438 295.300781 187.644531 295.523438 187.65625 295.738281 C 187.980469 302.933594 191.929688 309.574219 198.210938 313.5 C 201.429688 315.507812 205.132812 316.570312 208.925781 316.570312 C 212.3125 316.570312 215.75 315.710938 218.863281 314.089844 C 221.800781 312.558594 224.457031 310.175781 226.753906 307.011719 C 228.699219 304.328125 229.910156 300.988281 230.351562 297.085938 C 231.023438 291.203125 229.484375 285.867188 225.910156 281.648438 Z M 225.910156 281.648438 " fill-opacity="1" fill-rule="nonzero"/><path fill="#ff7d9c" d="M 167.414062 298.824219 C 166.597656 299.921875 165.488281 300.675781 164.117188 301.0625 C 162.179688 301.605469 160.019531 301.304688 158.199219 300.230469 C 157.832031 300.015625 157.53125 299.835938 157.460938 299.792969 L 157.257812 299.648438 C 156.554688 299.035156 155.808594 298.359375 155.125 297.59375 C 155.027344 297.484375 154.9375 297.375 154.839844 297.261719 L 154.574219 296.953125 C 154.496094 296.863281 154.40625 296.761719 154.300781 296.660156 C 154.183594 296.488281 154.066406 296.292969 153.957031 296.109375 C 153.859375 295.949219 153.761719 295.789062 153.667969 295.640625 C 153.085938 294.738281 152.542969 293.761719 152.054688 292.746094 L 151.910156 292.457031 C 151.867188 292.367188 151.820312 292.277344 151.777344 292.183594 L 151.683594 291.9375 C 151.398438 291.199219 151.125 290.457031 150.878906 289.703125 C 150.566406 288.738281 150.28125 287.707031 150.015625 286.632812 C 152.71875 286.636719 155.390625 286.578125 158.023438 286.441406 C 160.078125 286.335938 162.011719 286.140625 163.855469 285.875 L 163.855469 272.453125 C 161.492188 272.910156 158.886719 273.207031 155.878906 273.347656 L 155.570312 273.363281 C 155.15625 273.382812 154.738281 273.40625 154.34375 273.414062 L 152.742188 273.429688 C 151.296875 273.4375 149.847656 273.425781 148.40625 273.398438 C 148.28125 273.394531 148.152344 273.390625 148.023438 273.386719 C 147.773438 270.601562 147.578125 267.765625 147.457031 264.9375 C 147.359375 262.75 147.3125 260.539062 147.300781 258.316406 C 148.148438 258.324219 149 258.320312 149.847656 258.335938 C 152.867188 258.394531 155.949219 258.53125 159.003906 258.746094 C 163.984375 259.09375 169.058594 259.667969 174.085938 260.449219 L 175.394531 260.65625 L 179.4375 247.929688 L 177.683594 247.632812 C 164.707031 245.460938 152.105469 244.671875 140.230469 245.292969 C 138.175781 245.398438 136.242188 245.59375 134.402344 245.859375 L 134.308594 247.632812 C 133.613281 260.773438 134.253906 273.382812 136.210938 285.113281 C 137.453125 292.566406 139.582031 298.433594 142.714844 303.050781 C 145.128906 306.613281 150.324219 312.804688 157.984375 314.277344 C 159.476562 314.566406 160.953125 314.710938 162.378906 314.710938 C 164.558594 314.710938 166.632812 314.375 168.507812 313.710938 C 172.351562 312.351562 175.445312 310.027344 177.964844 306.605469 C 178.210938 306.273438 178.414062 305.90625 178.578125 305.511719 L 179.074219 304.296875 L 168.253906 297.703125 Z M 167.414062 298.824219 " fill-opacity="1" fill-rule="nonzero"/><path fill="#ff7d9c" d="M 126.402344 277.863281 C 124.824219 275.679688 122.761719 273.808594 120.46875 272.4375 C 122.007812 270.511719 123.179688 268.296875 123.867188 265.882812 C 125.527344 260.050781 124.039062 253.617188 119.886719 248.667969 C 118.015625 246.441406 115.507812 244.691406 112.824219 243.738281 C 110.972656 243.078125 108.6875 242.835938 106.03125 243.015625 C 103.476562 243.191406 101 243.644531 98.644531 244.347656 C 98.640625 244.339844 98.636719 244.328125 98.628906 244.320312 L 97.753906 242.957031 L 96.265625 243.605469 C 96.265625 243.605469 93.773438 244.6875 91.28125 245.78125 C 84.917969 248.574219 84.917969 248.574219 85.207031 250.109375 C 85.429688 251.304688 85.640625 253.035156 85.84375 254.710938 C 85.980469 255.828125 86.109375 256.902344 86.238281 257.746094 L 86.515625 259.726562 C 86.664062 260.878906 86.800781 262.03125 86.925781 263.183594 C 87.375 267.316406 87.679688 271.515625 87.835938 275.667969 C 88.152344 284.066406 87.871094 292.589844 87 301.011719 C 86.878906 302.175781 86.746094 303.339844 86.601562 304.503906 L 86.515625 305.199219 L 86.527344 305.199219 C 86.507812 305.292969 86.492188 305.394531 86.480469 305.5 L 86.460938 305.65625 L 86.453125 305.65625 L 86.441406 305.777344 C 86.433594 305.816406 86.429688 305.855469 86.421875 305.898438 L 86.269531 307 C 85.929688 309.328125 85.523438 311.777344 85.058594 314.277344 L 84.585938 316.832031 L 99.878906 314.996094 L 100.109375 313.578125 C 100.128906 313.480469 100.140625 313.378906 100.15625 313.28125 C 104.144531 313.964844 108.980469 314.324219 113.699219 313.109375 C 121.140625 311.195312 127.117188 305.851562 129.683594 298.820312 C 132.175781 291.980469 130.949219 284.148438 126.402344 277.863281 Z M 109.171875 254.3125 C 110.011719 254.621094 110.789062 255.117188 111.449219 255.777344 C 111.457031 255.785156 112.253906 256.578125 112.746094 258.234375 C 113.742188 261.566406 112.472656 265.273438 109.59375 267.449219 C 106.871094 269.503906 103.84375 270.09375 100.566406 269.253906 L 99.742188 255.164062 C 101.898438 253.988281 105.28125 252.886719 109.171875 254.3125 Z M 112.453125 299.457031 C 109.101562 301.632812 105.511719 302.097656 101.761719 300.917969 C 101.910156 299.414062 101.433594 284.035156 101.433594 284.035156 C 104.101562 282.757812 108.382812 281.570312 113.089844 283.695312 C 114.066406 284.132812 114.953125 284.796875 115.6875 285.644531 C 115.699219 285.65625 116.582031 286.671875 117.027344 288.695312 C 117.929688 292.777344 116.09375 297.101562 112.453125 299.457031 Z M 112.453125 299.457031 " fill-opacity="1" fill-rule="nonzero"/><path fill="#ff7d9c" d="M 151.117188 97.1875 C 150.367188 91.789062 149.039062 86.242188 146.0625 81.335938 C 142.914062 76.152344 138.511719 71.457031 131.496094 68.957031 C 123.804688 66.214844 114.328125 66.832031 106.871094 70.472656 C 100.582031 73.539062 96.515625 78.898438 94.40625 84.121094 C 92.039062 89.988281 91.269531 95.78125 91.195312 101.78125 C 91.132812 107.09375 91.910156 112.347656 93.421875 117.441406 C 95.941406 125.933594 100.441406 133.976562 110.390625 137.863281 C 110.527344 137.917969 110.667969 137.964844 110.8125 138.007812 C 121.074219 141.640625 133.226562 138.125 140.914062 131.511719 C 146.890625 126.367188 150.136719 119.242188 151.035156 112.34375 C 151.695312 107.28125 151.8125 102.226562 151.117188 97.1875 Z M 137.558594 102.558594 C 137.9375 116.0625 131.71875 127.289062 123.628906 127.851562 C 115.539062 128.410156 108.132812 118.121094 107.132812 104.648438 C 106.132812 91.179688 112.425781 79.59375 121.140625 79 C 129.855469 78.40625 137.183594 89.054688 137.558594 102.558594 Z M 137.558594 102.558594 " fill-opacity="1" fill-rule="nonzero"/><path fill="#ff7d9c" d="M 80.46875 72.933594 C 80.316406 72.402344 80.238281 72.136719 80.085938 71.605469 C 74.757812 74.710938 72.117188 76.289062 66.894531 79.496094 C 66.941406 79.757812 66.964844 79.886719 67.011719 80.144531 C 67.101562 80.667969 67.144531 80.910156 67.164062 81.023438 C 67.160156 81.203125 67.191406 81.5 67.289062 82.199219 C 67.429688 83.277344 67.539062 84.253906 67.621094 85.195312 C 67.667969 85.761719 67.707031 86.328125 67.734375 86.894531 C 67.734375 86.910156 67.734375 86.917969 67.734375 86.933594 C 67.734375 86.976562 67.734375 87.023438 67.734375 87.070312 C 67.738281 87.175781 67.742188 87.226562 67.746094 87.328125 C 67.714844 89.441406 67.585938 91.0625 67.320312 92.585938 C 67.308594 92.660156 66.066406 100.054688 60.988281 102.304688 C 58.734375 103.300781 56.527344 103.683594 54.265625 103.625 C 53.957031 103.609375 53.800781 103.601562 53.496094 103.585938 C 53.164062 103.5625 52.828125 103.53125 52.539062 103.488281 C 47.53125 102.738281 43.996094 97.046875 43.953125 96.980469 C 43.144531 95.679688 42.402344 94.230469 41.574219 92.292969 C 41.539062 92.191406 41.519531 92.144531 41.484375 92.042969 C 41.46875 92 41.449219 91.957031 41.429688 91.914062 C 41.425781 91.902344 41.421875 91.894531 41.417969 91.882812 C 41.226562 91.34375 41.050781 90.804688 40.878906 90.261719 C 40.578125 89.300781 40.304688 88.335938 40.027344 87.28125 C 39.542969 85.429688 39.527344 85.359375 39.109375 83.4375 C 39.042969 83.132812 39.011719 82.976562 38.945312 82.671875 C 33.050781 82.589844 30.097656 82.582031 24.167969 82.632812 C 24.21875 83.097656 24.246094 83.332031 24.296875 83.796875 C 24.320312 84.027344 24.363281 84.261719 24.417969 84.492188 C 26.597656 93.648438 29.15625 102.355469 35.65625 108.691406 C 40.195312 113.117188 46.316406 116.011719 52.234375 116.582031 C 53.765625 123.679688 58.085938 147.316406 58.265625 148.804688 C 58.320312 149.242188 58.347656 149.460938 58.398438 149.898438 C 63.515625 148.824219 66.078125 148.3125 71.210938 147.347656 C 71.171875 146.976562 71.152344 146.792969 71.117188 146.421875 C 70.289062 138.347656 68.285156 126.480469 65.667969 114.542969 C 71.558594 111.945312 76.625 106.710938 79.40625 100.273438 C 83.007812 91.949219 82.070312 82.921875 80.617188 73.621094 C 80.582031 73.386719 80.53125 73.15625 80.46875 72.933594 Z M 80.46875 72.933594 " fill-opacity="1" fill-rule="nonzero"/><path fill="#ff7d9c" d="M 284.445312 129.636719 C 283.15625 124.5 280.738281 120.101562 277.253906 116.605469 C 275.027344 114.371094 272.484375 112.363281 269.699219 110.644531 C 269.390625 110.453125 269.234375 110.359375 268.925781 110.167969 C 269.246094 110.007812 269.40625 109.925781 269.726562 109.761719 C 274.964844 107.101562 279.3125 103.234375 282.269531 98.511719 C 285.503906 93.351562 286.214844 87.027344 284.066406 80.679688 C 281.925781 74.355469 275.933594 69.621094 267.675781 67.902344 C 266.78125 67.71875 265.816406 67.5625 264.8125 67.449219 C 261.660156 67.089844 258.382812 67.140625 255.59375 67.25 C 253.882812 67.320312 252.210938 67.566406 250.628906 67.980469 C 250.578125 67.992188 250.554688 68 250.503906 68.011719 C 250.453125 68.003906 250.425781 68 250.371094 67.996094 C 250.167969 67.964844 249.945312 67.941406 249.765625 67.933594 C 245.28125 67.722656 241.578125 70.476562 241.210938 74.332031 C 239.214844 95.230469 237.238281 116.128906 235.285156 137.03125 C 235.273438 137.183594 235.265625 137.332031 235.261719 137.484375 C 235.246094 138.105469 235.242188 138.414062 235.226562 139.035156 C 240.867188 139.117188 243.691406 139.191406 249.34375 139.398438 C 249.417969 138.84375 249.453125 138.566406 249.527344 138.007812 C 250.023438 134.257812 251.140625 125.027344 251.835938 119.09375 C 251.851562 118.953125 251.863281 118.882812 251.878906 118.742188 C 252.019531 118.707031 252.09375 118.691406 252.234375 118.65625 C 252.300781 118.640625 253.851562 118.269531 256.046875 118.511719 C 260.746094 119.023438 268.859375 122.496094 269.773438 139.136719 C 269.804688 139.683594 269.820312 139.957031 269.847656 140.503906 C 275.589844 140.90625 278.460938 141.140625 284.203125 141.679688 C 284.316406 141.144531 284.375 140.875 284.488281 140.335938 C 285.296875 136.511719 285.296875 133.011719 284.445312 129.636719 Z M 270.417969 87.5625 C 270.40625 87.609375 270.402344 87.628906 270.390625 87.675781 C 268.496094 97.28125 258.953125 99.8125 254.175781 99.882812 C 253.925781 99.886719 253.800781 99.890625 253.550781 99.894531 C 254.304688 92.53125 254.679688 88.847656 255.433594 81.484375 C 255.621094 81.472656 255.714844 81.464844 255.902344 81.453125 C 263.363281 80.984375 268.15625 82.125 269.871094 84.609375 C 270.785156 85.925781 270.519531 87.203125 270.417969 87.5625 Z M 270.417969 87.5625 " fill-opacity="1" fill-rule="nonzero"/><path fill="#ff7d9c" d="M 214.667969 72.113281 C 214.5625 70.972656 214.410156 69.78125 214.03125 68.808594 C 213.859375 68.367188 213.769531 68.148438 213.597656 67.707031 C 207.167969 70.527344 203.984375 71.972656 197.691406 74.9375 C 197.945312 76.90625 198.070312 77.890625 198.320312 79.859375 C 198.984375 86.925781 199.058594 92.304688 198.609375 97.296875 C 198.550781 97.964844 198.46875 98.628906 198.386719 99.296875 C 198.332031 99.75 198.304688 99.980469 198.246094 100.433594 C 198.199219 100.691406 198.171875 100.820312 198.125 101.074219 C 198.058594 101.417969 197.996094 101.757812 197.925781 102.097656 C 197.75 102.925781 197.554688 103.75 197.339844 104.566406 C 196.589844 107.40625 195.371094 109.929688 193.734375 112.066406 C 191.699219 114.714844 189.597656 116.082031 187.46875 116.152344 C 184.53125 116.253906 181.785156 113.828125 180 111.785156 C 178.082031 109.59375 176.839844 106.984375 176.433594 104.257812 C 176.425781 104.101562 176.402344 103.84375 176.386719 103.703125 C 176.359375 103.4375 176.328125 103.175781 176.296875 102.914062 C 176.261719 102.628906 176.226562 102.347656 176.199219 102.0625 C 176.089844 100.980469 176.007812 99.890625 175.945312 98.800781 C 175.464844 90.695312 175.589844 82.164062 176.382812 73.449219 C 176.414062 73.113281 176.429688 72.945312 176.460938 72.605469 C 169.746094 70.925781 166.367188 70.121094 159.574219 68.605469 C 159.53125 69.09375 159.511719 69.339844 159.46875 69.828125 C 158.601562 79.746094 158.589844 89.492188 159.328125 98.796875 C 159.964844 106.847656 161.851562 118.402344 169.9375 126.332031 C 174.75 131.042969 180.789062 133.472656 186.800781 133.476562 C 190.808594 133.480469 194.8125 132.40625 198.441406 130.171875 C 205.996094 125.527344 211.542969 116.828125 213.957031 105.496094 C 216.332031 94.339844 215.714844 83.34375 214.667969 72.113281 Z M 214.667969 72.113281 " fill-opacity="1" fill-rule="nonzero"/><path fill="#ff7d9c" d="M 323.085938 133.925781 C 322.015625 134.824219 320.722656 135.3125 319.238281 135.394531 C 317.140625 135.511719 315.007812 134.753906 313.351562 133.316406 C 313.023438 133.027344 312.746094 132.789062 312.683594 132.730469 C 312.613281 132.65625 312.578125 132.621094 312.507812 132.546875 C 311.90625 131.792969 311.273438 130.976562 310.71875 130.082031 C 310.640625 129.953125 310.566406 129.824219 310.492188 129.695312 C 310.40625 129.550781 310.363281 129.476562 310.277344 129.332031 C 310.214844 129.230469 310.140625 129.113281 310.050781 128.992188 C 309.964844 128.796875 309.882812 128.578125 309.804688 128.375 C 309.734375 128.195312 309.664062 128.019531 309.597656 127.855469 C 309.171875 126.84375 308.796875 125.773438 308.480469 124.667969 C 308.445312 124.546875 308.425781 124.480469 308.386719 124.359375 C 308.359375 124.257812 308.324219 124.160156 308.300781 124.058594 C 308.277344 123.953125 308.269531 123.902344 308.25 123.796875 C 308.097656 123.007812 307.949219 122.222656 307.835938 121.429688 C 307.6875 120.410156 307.585938 119.335938 307.507812 118.222656 C 310.339844 118.761719 313.152344 119.253906 315.9375 119.679688 C 318.105469 120.011719 320.171875 120.242188 322.152344 120.394531 C 323.277344 115.109375 323.839844 112.46875 324.96875 107.183594 C 322.347656 107.097656 319.507812 106.8125 316.269531 106.308594 C 316.136719 106.289062 316.070312 106.277344 315.9375 106.257812 C 315.488281 106.191406 315.035156 106.121094 314.617188 106.050781 C 313.929688 105.917969 313.585938 105.855469 312.898438 105.726562 C 311.351562 105.433594 309.808594 105.128906 308.265625 104.8125 C 308.132812 104.785156 307.996094 104.753906 307.863281 104.726562 C 308.105469 101.917969 308.414062 99.074219 308.800781 96.253906 C 309.097656 94.070312 309.453125 91.871094 309.84375 89.671875 C 310.773438 89.847656 311.703125 90.019531 312.625 90.210938 C 315.917969 90.890625 319.261719 91.691406 322.554688 92.585938 C 327.921875 94.046875 333.324219 95.8125 338.597656 97.835938 C 339.144531 98.046875 339.417969 98.152344 339.964844 98.363281 C 342.882812 93.785156 344.355469 91.5 347.335938 86.949219 C 346.589844 86.648438 346.21875 86.5 345.46875 86.203125 C 332.746094 80.890625 317.953125 77.003906 304.324219 75.371094 C 302.023438 75.09375 299.816406 74.910156 297.714844 74.835938 C 297.558594 75.53125 297.480469 75.882812 297.320312 76.578125 C 294.417969 89.503906 293.132812 102.148438 293.261719 114.132812 C 293.339844 121.746094 294.5625 127.9375 296.960938 133.082031 C 298.808594 137.046875 302.941406 144.109375 310.316406 147.117188 C 311.757812 147.707031 313.199219 148.15625 314.628906 148.457031 C 316.808594 148.914062 318.949219 149.035156 320.96875 148.796875 C 325.109375 148.308594 328.726562 146.75 332.066406 144.003906 C 332.390625 143.738281 332.683594 143.429688 332.9375 143.082031 C 333.253906 142.652344 333.414062 142.441406 333.726562 142.011719 C 329.964844 138.382812 328.058594 136.582031 324.1875 133.011719 C 323.746094 133.375 323.527344 133.558594 323.085938 133.925781 Z M 323.085938 133.925781 " fill-opacity="1" fill-rule="nonzero"/><path fill="#ff7d9c" d="M 226.0625 64.90625 C 223.980469 69.226562 221.441406 73.765625 221.441406 73.765625 C 223.183594 73.855469 224.054688 73.902344 225.796875 74.003906 C 225.796875 74.003906 229.664062 69.183594 232.546875 64.609375 C 234.757812 63.558594 236.335938 61.554688 236.507812 59.15625 C 236.773438 55.433594 233.527344 52.164062 229.253906 51.902344 C 224.980469 51.644531 221.363281 54.496094 221.175781 58.222656 C 221.027344 61.207031 223.089844 63.839844 226.0625 64.90625 Z M 226.0625 64.90625 " fill-opacity="1" fill-rule="nonzero"/><path fill="#ffd409" d="M 217.820312 141.289062 C 220.074219 140.648438 221.726562 138.59375 221.714844 136.136719 C 221.703125 133.179688 219.292969 130.792969 216.335938 130.808594 C 214.382812 130.816406 212.683594 131.875 211.753906 133.445312 C 211.503906 133.867188 211.316406 134.332031 211.1875 134.816406 C 211.796875 137.664062 213.535156 140.472656 217.820312 141.289062 Z M 217.820312 141.289062 " fill-opacity="1" fill-rule="nonzero"/><path fill="#f8b21b" d="M 215.5 141.4375 C 215.789062 141.488281 216.085938 141.515625 216.386719 141.515625 C 216.886719 141.511719 217.363281 141.417969 217.820312 141.289062 C 213.535156 140.472656 211.796875 137.664062 211.1875 134.816406 C 211.070312 135.253906 211.007812 135.710938 211.007812 136.1875 C 211.019531 138.839844 212.964844 141.027344 215.5 141.4375 Z M 215.5 141.4375 " fill-opacity="1" fill-rule="nonzero"/><path fill="#ffd409" d="M 98.761719 61.585938 L 97.507812 61.085938 C 95.667969 60.347656 94.046875 59.058594 92.828125 57.359375 L 92.199219 56.484375 C 91.566406 55.597656 90.191406 55.820312 89.867188 56.859375 L 89.546875 57.890625 C 88.933594 59.878906 87.796875 61.617188 86.28125 62.898438 L 85.25 63.769531 C 84.488281 64.410156 84.6875 65.632812 85.609375 66 L 86.863281 66.5 C 88.703125 67.238281 90.328125 68.53125 91.539062 70.226562 L 92.167969 71.101562 C 92.804688 71.988281 94.179688 71.765625 94.5 70.726562 L 94.820312 69.695312 C 95.4375 67.707031 96.574219 65.96875 98.089844 64.6875 L 99.121094 63.816406 C 99.882812 63.175781 99.683594 61.957031 98.761719 61.585938 Z M 98.761719 61.585938 " fill-opacity="1" fill-rule="nonzero"/><path fill="#f8b21b" d="M 93.121094 71.648438 C 93.699219 71.699219 94.300781 71.371094 94.5 70.726562 L 94.820312 69.699219 C 95.4375 67.710938 96.570312 65.96875 98.085938 64.691406 L 99.117188 63.820312 C 99.546875 63.457031 99.671875 62.914062 99.535156 62.441406 C 96.964844 63.683594 93.316406 66.371094 93.121094 71.648438 Z M 93.121094 71.648438 " fill-opacity="1" fill-rule="nonzero"/><path fill="#ffd409" d="M 196.203125 244.015625 C 198.453125 243.371094 200.109375 241.316406 200.097656 238.859375 C 200.082031 235.90625 197.675781 233.519531 194.71875 233.53125 C 192.761719 233.542969 191.0625 234.601562 190.136719 236.171875 C 189.886719 236.59375 189.695312 237.054688 189.566406 237.542969 C 190.175781 240.386719 191.914062 243.199219 196.203125 244.015625 Z M 196.203125 244.015625 " fill-opacity="1" fill-rule="nonzero"/><path fill="#f8b21b" d="M 193.878906 244.164062 C 194.167969 244.210938 194.464844 244.242188 194.765625 244.238281 C 195.265625 244.238281 195.742188 244.144531 196.199219 244.015625 C 191.914062 243.199219 190.175781 240.386719 189.566406 237.539062 C 189.449219 237.980469 189.386719 238.4375 189.386719 238.910156 C 189.398438 241.566406 191.34375 243.753906 193.878906 244.164062 Z M 193.878906 244.164062 " fill-opacity="1" fill-rule="nonzero"/><path fill="#ffd409" d="M 347.453125 125.511719 C 349.707031 124.878906 351.371094 122.832031 351.371094 120.375 C 351.371094 117.417969 348.972656 115.019531 346.019531 115.019531 C 344.0625 115.019531 342.359375 116.074219 341.421875 117.636719 C 341.171875 118.058594 340.976562 118.519531 340.847656 119.003906 C 341.445312 121.855469 343.171875 124.671875 347.453125 125.511719 Z M 347.453125 125.511719 " fill-opacity="1" fill-rule="nonzero"/><path fill="#f8b21b" d="M 345.128906 125.648438 C 345.417969 125.699219 345.714844 125.726562 346.015625 125.726562 C 346.515625 125.726562 346.992188 125.636719 347.453125 125.507812 C 343.167969 124.671875 341.445312 121.855469 340.847656 119.003906 C 340.730469 119.441406 340.664062 119.898438 340.664062 120.375 C 340.664062 123.027344 342.59375 125.226562 345.128906 125.648438 Z M 345.128906 125.648438 " fill-opacity="1" fill-rule="nonzero"/><path fill="#ffd409" d="M 39.625 130.519531 L 38.332031 130.121094 C 36.441406 129.539062 34.714844 128.386719 33.363281 126.796875 L 32.664062 125.976562 C 31.960938 125.144531 30.609375 125.480469 30.371094 126.542969 L 30.136719 127.597656 C 29.6875 129.628906 28.699219 131.457031 27.292969 132.859375 L 26.335938 133.8125 C 25.632812 134.511719 25.929688 135.714844 26.882812 136.007812 L 28.171875 136.402344 C 30.070312 136.984375 31.796875 138.140625 33.140625 139.726562 L 33.839844 140.550781 C 34.546875 141.378906 35.898438 141.046875 36.136719 139.980469 L 36.371094 138.929688 C 36.820312 136.894531 37.808594 135.066406 39.210938 133.667969 L 40.167969 132.714844 C 40.875 132.011719 40.574219 130.8125 39.625 130.519531 Z M 39.625 130.519531 " fill-opacity="1" fill-rule="nonzero"/><path fill="#f8b21b" d="M 34.835938 141.015625 C 35.417969 141.015625 35.988281 140.636719 36.136719 139.980469 L 36.371094 138.929688 C 36.820312 136.894531 37.808594 135.066406 39.210938 133.667969 L 40.167969 132.714844 C 40.5625 132.320312 40.644531 131.769531 40.46875 131.308594 C 38.011719 132.757812 34.59375 135.738281 34.835938 141.015625 Z M 34.835938 141.015625 " fill-opacity="1" fill-rule="nonzero"/><path fill="#ffd409" d="M 128.050781 314.109375 L 129.210938 313.417969 C 130.914062 312.40625 132.316406 310.878906 133.257812 309.015625 L 133.742188 308.050781 C 134.230469 307.078125 135.625 307.085938 136.105469 308.0625 L 136.582031 309.03125 C 137.5 310.902344 138.890625 312.445312 140.585938 313.472656 L 141.738281 314.175781 C 142.589844 314.691406 142.585938 315.925781 141.726562 316.433594 L 140.570312 317.125 C 138.863281 318.140625 137.457031 319.667969 136.523438 321.527344 L 136.039062 322.492188 C 135.546875 323.464844 134.15625 323.457031 133.675781 322.480469 L 133.199219 321.511719 C 132.28125 319.644531 130.890625 318.101562 129.195312 317.070312 L 128.042969 316.371094 C 127.191406 315.851562 127.195312 314.617188 128.050781 314.109375 Z M 128.050781 314.109375 " fill-opacity="1" fill-rule="nonzero"/><path fill="#f8b21b" d="M 135.179688 323.175781 C 134.613281 323.316406 133.96875 323.085938 133.671875 322.480469 L 133.199219 321.511719 C 132.28125 319.640625 130.890625 318.097656 129.195312 317.070312 L 128.039062 316.367188 C 127.5625 316.078125 127.355469 315.5625 127.414062 315.074219 C 130.148438 315.902344 134.171875 317.992188 135.179688 323.175781 Z M 135.179688 323.175781 " fill-opacity="1" fill-rule="nonzero"/><path fill="#4fb9df" d="M 63.695312 259.195312 C 63.757812 258.933594 63.898438 258.691406 64.097656 258.507812 L 64.101562 258.503906 C 66.707031 256.117188 69.429688 253.859375 72.253906 251.746094 C 72.871094 251.28125 73.554688 250.804688 74.328125 250.800781 C 75.84375 250.796875 76.703125 252.503906 77.171875 253.945312 C 78.71875 258.679688 79.957031 263.515625 80.875 268.410156 C 77.191406 264.496094 70.785156 259.058594 63.695312 259.195312 Z M 63.695312 259.195312 " fill-opacity="1" fill-rule="nonzero"/><path fill="#42a2bc" d="M 64.089844 260.371094 C 64.089844 260.371094 64.085938 260.371094 64.085938 260.371094 C 63.796875 260.15625 63.632812 259.804688 63.660156 259.449219 C 63.660156 259.425781 63.660156 259.402344 63.664062 259.378906 C 63.667969 259.316406 63.679688 259.257812 63.695312 259.195312 C 70.785156 259.058594 77.195312 264.492188 80.878906 268.410156 C 80.894531 268.5 80.914062 268.585938 80.929688 268.671875 C 74.878906 266.941406 69.148438 264.117188 64.089844 260.371094 Z M 64.089844 260.371094 " fill-opacity="1" fill-rule="nonzero"/><path fill="#4fb9df" d="M 58.78125 285.617188 C 58.699219 285.421875 58.625 285.222656 58.558594 285.03125 C 57.550781 282.046875 57.183594 278.953125 57.484375 275.945312 C 57.605469 274.777344 57.960938 273.460938 59.214844 272.996094 C 60.378906 272.566406 61.792969 273.070312 63.003906 273.582031 C 68.691406 275.996094 74.144531 278.855469 79.257812 282.109375 C 73.980469 282.050781 66.679688 282.710938 58.78125 285.617188 Z M 58.78125 285.617188 " fill-opacity="1" fill-rule="nonzero"/><path fill="#42a2bc" d="M 78.066406 282.957031 C 73.53125 284.65625 68.996094 286.355469 64.457031 288.054688 C 63.699219 288.335938 62.898438 288.628906 62.039062 288.542969 C 60.398438 288.378906 59.363281 286.988281 58.78125 285.617188 C 66.679688 282.707031 73.980469 282.050781 79.253906 282.109375 C 79.273438 282.121094 79.296875 282.136719 79.320312 282.148438 Z M 78.066406 282.957031 " fill-opacity="1" fill-rule="nonzero"/><path fill="#4fb9df" d="M 63.449219 303.472656 C 63.476562 302.332031 64.21875 301.308594 65.148438 300.652344 C 66.082031 299.992188 67.1875 299.644531 68.277344 299.304688 C 72.941406 297.84375 77.605469 296.386719 82.273438 294.925781 C 82.257812 294.988281 82.242188 295.050781 82.230469 295.113281 C 78.714844 298.464844 73.847656 304.617188 71.800781 314.246094 C 71.527344 314.226562 71.253906 314.171875 70.984375 314.082031 C 69.699219 313.644531 68.8125 312.484375 68.023438 311.375 C 66.875 309.765625 65.753906 308.140625 64.660156 306.5 C 64.050781 305.578125 63.421875 304.574219 63.449219 303.472656 Z M 63.449219 303.472656 " fill-opacity="1" fill-rule="nonzero"/><path fill="#42a2bc" d="M 82.230469 295.113281 C 81.164062 299.769531 79.699219 304.332031 77.847656 308.730469 C 77.226562 310.210938 76.535156 311.707031 75.382812 312.824219 C 74.433594 313.742188 73.09375 314.351562 71.804688 314.246094 C 73.847656 304.617188 78.714844 298.464844 82.230469 295.113281 Z M 82.230469 295.113281 " fill-opacity="1" fill-rule="nonzero"/><path fill="#4fb9df" d="M 308.652344 259.195312 C 308.589844 258.933594 308.445312 258.691406 308.246094 258.507812 L 308.242188 258.503906 C 305.636719 256.117188 302.914062 253.859375 300.089844 251.746094 C 299.472656 251.28125 298.789062 250.804688 298.015625 250.800781 C 296.5 250.796875 295.640625 252.503906 295.171875 253.945312 C 293.625 258.679688 292.386719 263.515625 291.46875 268.410156 C 295.152344 264.496094 301.5625 259.058594 308.652344 259.195312 Z M 308.652344 259.195312 " fill-opacity="1" fill-rule="nonzero"/><path fill="#42a2bc" d="M 308.253906 260.371094 C 308.253906 260.371094 308.257812 260.371094 308.257812 260.371094 C 308.546875 260.15625 308.710938 259.804688 308.6875 259.449219 C 308.683594 259.425781 308.683594 259.402344 308.679688 259.378906 C 308.675781 259.316406 308.664062 259.257812 308.648438 259.195312 C 301.558594 259.058594 295.148438 264.492188 291.46875 268.410156 C 291.449219 268.5 291.433594 268.585938 291.414062 268.671875 C 297.464844 266.941406 303.195312 264.117188 308.253906 260.371094 Z M 308.253906 260.371094 " fill-opacity="1" fill-rule="nonzero"/><path fill="#4fb9df" d="M 313.5625 285.617188 C 313.644531 285.421875 313.71875 285.222656 313.785156 285.03125 C 314.796875 282.046875 315.160156 278.953125 314.859375 275.945312 C 314.742188 274.777344 314.386719 273.460938 313.128906 272.996094 C 311.964844 272.566406 310.550781 273.070312 309.34375 273.582031 C 303.652344 275.996094 298.199219 278.855469 293.089844 282.109375 C 298.363281 282.050781 305.664062 282.710938 313.5625 285.617188 Z M 313.5625 285.617188 " fill-opacity="1" fill-rule="nonzero"/><path fill="#42a2bc" d="M 294.277344 282.957031 C 298.8125 284.65625 303.351562 286.355469 307.886719 288.054688 C 308.644531 288.335938 309.449219 288.628906 310.304688 288.542969 C 311.945312 288.378906 312.980469 286.988281 313.5625 285.617188 C 305.667969 282.707031 298.367188 282.050781 293.089844 282.109375 C 293.070312 282.121094 293.046875 282.136719 293.023438 282.148438 Z M 294.277344 282.957031 " fill-opacity="1" fill-rule="nonzero"/><path fill="#4fb9df" d="M 308.898438 303.472656 C 308.867188 302.332031 308.125 301.308594 307.195312 300.652344 C 306.265625 299.992188 305.15625 299.644531 304.070312 299.304688 C 299.402344 297.84375 294.738281 296.386719 290.070312 294.925781 C 290.085938 294.988281 290.101562 295.050781 290.117188 295.113281 C 293.628906 298.464844 298.5 304.617188 300.542969 314.246094 C 300.820312 314.226562 301.089844 314.171875 301.359375 314.082031 C 302.648438 313.644531 303.53125 312.484375 304.320312 311.375 C 305.46875 309.765625 306.589844 308.140625 307.683594 306.5 C 308.296875 305.578125 308.921875 304.574219 308.898438 303.472656 Z M 308.898438 303.472656 " fill-opacity="1" fill-rule="nonzero"/><path fill="#42a2bc" d="M 290.113281 295.113281 C 291.179688 299.769531 292.644531 304.332031 294.496094 308.730469 C 295.117188 310.210938 295.808594 311.707031 296.960938 312.824219 C 297.910156 313.742188 299.25 314.351562 300.542969 314.246094 C 298.496094 304.617188 293.628906 298.464844 290.113281 295.113281 Z M 290.113281 295.113281 " fill-opacity="1" fill-rule="nonzero"/><path fill="#ffd409" d="M 108.960938 186.777344 L 106.308594 185.183594 C 102.417969 182.839844 99.210938 179.328125 97.078125 175.039062 L 95.976562 172.824219 C 94.863281 170.585938 91.671875 170.585938 90.558594 172.824219 L 89.457031 175.039062 C 87.332031 179.316406 84.125 182.839844 80.226562 185.183594 L 77.574219 186.777344 C 75.617188 187.953125 75.617188 190.789062 77.574219 191.964844 L 80.226562 193.558594 C 84.125 195.902344 87.332031 199.425781 89.457031 203.703125 L 90.558594 205.917969 C 91.671875 208.15625 94.863281 208.15625 95.976562 205.917969 L 97.078125 203.703125 C 99.203125 199.425781 102.40625 195.902344 106.308594 193.558594 L 108.960938 191.964844 C 110.917969 190.789062 110.914062 187.953125 108.960938 186.777344 Z M 108.960938 186.777344 " fill-opacity="1" fill-rule="nonzero"/><path fill="#fff9e1" d="M 85.328125 182.085938 C 85.121094 182.257812 84.917969 182.417969 84.714844 182.566406 C 84.457031 182.753906 84.398438 183.113281 84.585938 183.371094 C 84.699219 183.527344 84.875 183.609375 85.054688 183.609375 C 85.171875 183.609375 85.292969 183.574219 85.394531 183.496094 C 85.617188 183.335938 85.839844 183.160156 86.066406 182.972656 C 86.3125 182.769531 86.347656 182.40625 86.140625 182.160156 C 85.9375 181.917969 85.574219 181.882812 85.328125 182.085938 Z M 85.328125 182.085938 " fill-opacity="1" fill-rule="nonzero"/><path fill="#fff9e1" d="M 90.234375 176.441406 C 89.933594 176.328125 89.601562 176.480469 89.492188 176.78125 C 89.070312 177.90625 88.039062 179.402344 86.726562 180.773438 C 86.507812 181.003906 86.515625 181.371094 86.746094 181.589844 C 86.859375 181.695312 87 181.75 87.144531 181.75 C 87.296875 181.75 87.449219 181.691406 87.5625 181.570312 C 88.996094 180.066406 90.09375 178.46875 90.574219 177.183594 C 90.683594 176.882812 90.53125 176.550781 90.234375 176.441406 Z M 90.234375 176.441406 " fill-opacity="1" fill-rule="nonzero"/><path fill="#f8b21b" d="M 92.515625 207.5 C 93.808594 207.824219 95.289062 207.300781 95.976562 205.917969 L 97.078125 203.699219 C 99.199219 199.421875 102.40625 195.898438 106.308594 193.558594 L 108.960938 191.960938 C 110.058594 191.300781 110.539062 190.117188 110.402344 188.996094 C 104.132812 190.867188 94.886719 195.617188 92.515625 207.5 Z M 92.515625 207.5 " fill-opacity="1" fill-rule="nonzero"/><path fill="#ffd409" d="M 80.367188 210.5 L 78.835938 209.578125 C 76.585938 208.226562 74.738281 206.199219 73.503906 203.722656 L 72.867188 202.445312 C 72.226562 201.152344 70.382812 201.152344 69.738281 202.445312 L 69.105469 203.722656 C 67.878906 206.191406 66.027344 208.226562 63.773438 209.578125 L 62.242188 210.5 C 61.113281 211.179688 61.113281 212.816406 62.242188 213.496094 L 63.773438 214.414062 C 66.027344 215.769531 67.875 217.800781 69.105469 220.273438 L 69.738281 221.550781 C 70.382812 222.84375 72.226562 222.84375 72.867188 221.550781 L 73.503906 220.273438 C 74.730469 217.800781 76.582031 215.769531 78.835938 214.414062 L 80.367188 213.496094 C 81.492188 212.816406 81.492188 211.179688 80.367188 210.5 Z M 80.367188 210.5 " fill-opacity="1" fill-rule="nonzero"/><path fill="#fff9e1" d="M 66.71875 207.792969 C 66.601562 207.890625 66.480469 207.984375 66.367188 208.070312 C 66.214844 208.175781 66.183594 208.386719 66.292969 208.535156 C 66.355469 208.625 66.457031 208.671875 66.5625 208.671875 C 66.628906 208.671875 66.699219 208.652344 66.757812 208.609375 C 66.886719 208.515625 67.015625 208.414062 67.144531 208.304688 C 67.289062 208.1875 67.308594 207.980469 67.1875 207.835938 C 67.070312 207.695312 66.859375 207.675781 66.71875 207.792969 Z M 66.71875 207.792969 " fill-opacity="1" fill-rule="nonzero"/><path fill="#fff9e1" d="M 69.550781 204.53125 C 69.378906 204.464844 69.1875 204.554688 69.121094 204.726562 C 68.878906 205.378906 68.285156 206.242188 67.523438 207.035156 C 67.398438 207.167969 67.402344 207.378906 67.535156 207.503906 C 67.601562 207.566406 67.683594 207.597656 67.765625 207.597656 C 67.855469 207.597656 67.941406 207.5625 68.007812 207.496094 C 68.835938 206.628906 69.46875 205.703125 69.746094 204.960938 C 69.8125 204.789062 69.726562 204.597656 69.550781 204.53125 Z M 69.550781 204.53125 " fill-opacity="1" fill-rule="nonzero"/><path fill="#f8b21b" d="M 70.867188 222.464844 C 71.613281 222.652344 72.46875 222.347656 72.867188 221.550781 L 73.503906 220.273438 C 74.730469 217.804688 76.578125 215.769531 78.832031 214.417969 L 80.363281 213.496094 C 81 213.113281 81.277344 212.429688 81.199219 211.785156 C 77.578125 212.863281 72.238281 215.605469 70.867188 222.464844 Z M 70.867188 222.464844 " fill-opacity="1" fill-rule="nonzero"/><path fill="#ffd409" d="M 263.542969 187.140625 L 266.195312 185.546875 C 270.085938 183.203125 273.289062 179.691406 275.425781 175.402344 L 276.527344 173.1875 C 277.640625 170.949219 280.832031 170.949219 281.945312 173.1875 L 283.046875 175.402344 C 285.171875 179.679688 288.375 183.203125 292.277344 185.546875 L 294.929688 187.140625 C 296.886719 188.316406 296.886719 191.152344 294.929688 192.328125 L 292.277344 193.921875 C 288.375 196.265625 285.171875 199.789062 283.046875 204.066406 L 281.945312 206.28125 C 280.832031 208.519531 277.640625 208.519531 276.527344 206.28125 L 275.425781 204.066406 C 273.300781 199.789062 270.09375 196.265625 266.195312 193.921875 L 263.542969 192.328125 C 261.585938 191.152344 261.585938 188.316406 263.542969 187.140625 Z M 263.542969 187.140625 " fill-opacity="1" fill-rule="nonzero"/><path fill="#fff9e1" d="M 287.171875 182.449219 C 287.378906 182.621094 287.585938 182.78125 287.785156 182.929688 C 288.042969 183.117188 288.101562 183.480469 287.914062 183.738281 C 287.800781 183.890625 287.625 183.972656 287.445312 183.972656 C 287.328125 183.972656 287.210938 183.9375 287.105469 183.863281 C 286.886719 183.703125 286.660156 183.527344 286.433594 183.339844 C 286.1875 183.136719 286.15625 182.769531 286.359375 182.527344 C 286.5625 182.28125 286.925781 182.246094 287.171875 182.449219 Z M 287.171875 182.449219 " fill-opacity="1" fill-rule="nonzero"/><path fill="#fff9e1" d="M 282.269531 176.804688 C 282.566406 176.691406 282.898438 176.84375 283.011719 177.144531 C 283.429688 178.273438 284.464844 179.765625 285.777344 181.140625 C 285.996094 181.367188 285.988281 181.734375 285.757812 181.953125 C 285.644531 182.0625 285.5 182.113281 285.359375 182.113281 C 285.207031 182.113281 285.054688 182.054688 284.941406 181.933594 C 283.503906 180.433594 282.40625 178.832031 281.929688 177.546875 C 281.816406 177.246094 281.96875 176.914062 282.269531 176.804688 Z M 282.269531 176.804688 " fill-opacity="1" fill-rule="nonzero"/><path fill="#f8b21b" d="M 279.988281 207.863281 C 278.695312 208.1875 277.214844 207.664062 276.527344 206.28125 L 275.425781 204.066406 C 273.300781 199.785156 270.09375 196.265625 266.195312 193.921875 L 263.542969 192.328125 C 262.441406 191.664062 261.960938 190.480469 262.097656 189.359375 C 268.367188 191.230469 277.617188 195.984375 279.988281 207.863281 Z M 279.988281 207.863281 " fill-opacity="1" fill-rule="nonzero"/><path fill="#ffd409" d="M 292.136719 210.863281 L 293.667969 209.945312 C 295.914062 208.589844 297.765625 206.5625 299 204.085938 L 299.632812 202.808594 C 300.277344 201.515625 302.121094 201.515625 302.761719 202.808594 L 303.398438 204.085938 C 304.625 206.558594 306.476562 208.589844 308.730469 209.945312 L 310.261719 210.863281 C 311.390625 211.542969 311.390625 213.179688 310.261719 213.859375 L 308.730469 214.78125 C 306.476562 216.132812 304.625 218.167969 303.398438 220.636719 L 302.761719 221.914062 C 302.121094 223.207031 300.277344 223.207031 299.632812 221.914062 L 299 220.636719 C 297.773438 218.167969 295.921875 216.132812 293.667969 214.78125 L 292.136719 213.859375 C 291.007812 213.179688 291.007812 211.542969 292.136719 210.863281 Z M 292.136719 210.863281 " fill-opacity="1" fill-rule="nonzero"/><path fill="#fff9e1" d="M 305.78125 208.15625 C 305.902344 208.253906 306.019531 208.347656 306.136719 208.433594 C 306.285156 208.539062 306.316406 208.75 306.210938 208.898438 C 306.144531 208.988281 306.042969 209.035156 305.941406 209.035156 C 305.871094 209.035156 305.804688 209.015625 305.746094 208.972656 C 305.617188 208.878906 305.488281 208.777344 305.355469 208.671875 C 305.214844 208.554688 305.195312 208.34375 305.3125 208.203125 C 305.429688 208.058594 305.640625 208.039062 305.78125 208.15625 Z M 305.78125 208.15625 " fill-opacity="1" fill-rule="nonzero"/><path fill="#fff9e1" d="M 302.949219 204.894531 C 303.125 204.832031 303.316406 204.917969 303.378906 205.09375 C 303.621094 205.742188 304.21875 206.605469 304.976562 207.398438 C 305.101562 207.53125 305.097656 207.742188 304.964844 207.871094 C 304.902344 207.933594 304.816406 207.960938 304.734375 207.960938 C 304.648438 207.960938 304.558594 207.929688 304.496094 207.859375 C 303.664062 206.992188 303.03125 206.070312 302.753906 205.324219 C 302.6875 205.152344 302.777344 204.960938 302.949219 204.894531 Z M 302.949219 204.894531 " fill-opacity="1" fill-rule="nonzero"/><path fill="#f8b21b" d="M 301.632812 222.828125 C 300.886719 223.015625 300.03125 222.714844 299.632812 221.917969 L 299 220.636719 C 297.773438 218.167969 295.921875 216.132812 293.667969 214.78125 L 292.136719 213.859375 C 291.503906 213.480469 291.222656 212.792969 291.304688 212.148438 C 294.921875 213.226562 300.265625 215.96875 301.632812 222.828125 Z M 301.632812 222.828125 " fill-opacity="1" fill-rule="nonzero"/><path fill="#ffd409" d="M 244.070312 320.398438 C 246.324219 319.757812 247.976562 317.703125 247.964844 315.246094 C 247.953125 312.289062 245.542969 309.902344 242.585938 309.917969 C 240.632812 309.925781 238.929688 310.984375 238.003906 312.554688 C 237.753906 312.980469 237.5625 313.441406 237.433594 313.925781 C 238.046875 316.773438 239.785156 319.582031 244.070312 320.398438 Z M 244.070312 320.398438 " fill-opacity="1" fill-rule="nonzero"/><path fill="#f8b21b" d="M 241.746094 320.550781 C 242.035156 320.597656 242.332031 320.625 242.632812 320.625 C 243.136719 320.621094 243.609375 320.527344 244.070312 320.398438 C 239.78125 319.582031 238.042969 316.773438 237.433594 313.925781 C 237.316406 314.363281 237.253906 314.820312 237.253906 315.296875 C 237.269531 317.949219 239.210938 320.136719 241.746094 320.550781 Z M 241.746094 320.550781 " fill-opacity="1" fill-rule="nonzero"/><g fill="#29235c" fill-opacity="1"><g transform="translate(275.087653, 231.850986)"><g><path d="M 2.125 -0.859375 L 1.296875 -0.03125 L 0.46875 -0.859375 L 1.296875 -1.6875 Z M 2.125 -0.859375 "/></g></g></g></svg>